<svg width="20" height="20" viewBox="0 0 20 20" fill="none" xmlns="http://www.w3.org/2000/svg">
<path d="M17.369 14.2875C17.0918 14.928 16.7636 15.5176 16.3833 16.0596C15.865 16.7986 15.4407 17.3101 15.1136 17.5942C14.6066 18.0604 14.0635 18.2992 13.4818 18.3128C13.0642 18.3128 12.5606 18.1939 11.9744 17.9529C11.3863 17.713 10.8458 17.5942 10.3516 17.5942C9.83335 17.5942 9.27748 17.713 8.68291 17.9529C8.08743 18.1939 7.60773 18.3196 7.24096 18.332C6.68317 18.3558 6.12719 18.1102 5.57223 17.5942C5.21802 17.2852 4.77498 16.7556 4.24423 16.0053C3.67479 15.2041 3.20662 14.275 2.83986 13.2158C2.44706 12.0717 2.25015 10.9638 2.25015 9.89123C2.25015 8.6626 2.51564 7.60292 3.0474 6.71491C3.46532 6.00163 4.0213 5.43897 4.71715 5.02592C5.413 4.61286 6.16487 4.40238 6.97457 4.38891C7.41761 4.38891 7.9986 4.52595 8.72059 4.79529C9.44055 5.06553 9.90283 5.20257 10.1055 5.20257C10.257 5.20257 10.7706 5.04233 11.6412 4.72286C12.4644 4.42659 13.1593 4.30392 13.7285 4.35224C15.2709 4.47673 16.4297 5.08476 17.2004 6.1802C15.8209 7.01604 15.1385 8.18674 15.1521 9.68855C15.1646 10.8583 15.5889 11.8318 16.4229 12.6047C16.8009 12.9634 17.223 13.2407 17.6927 13.4376C17.5908 13.733 17.4833 14.0159 17.369 14.2875V14.2875ZM13.8315 0.367015C13.8315 1.28389 13.4965 2.13998 12.8288 2.93236C12.0231 3.87435 11.0485 4.41867 9.99166 4.33278C9.9782 4.22278 9.97039 4.10701 9.97039 3.98536C9.97039 3.10516 10.3536 2.16317 11.034 1.39297C11.3737 1.003 11.8058 0.678752 12.3298 0.420089C12.8526 0.165286 13.3471 0.0243746 13.8122 0.000244141C13.8258 0.122816 13.8315 0.245396 13.8315 0.367003V0.367015Z" fill="black"/>
</svg>
