<svg width="390" height="267" viewBox="0 0 390 267" fill="none" xmlns="http://www.w3.org/2000/svg">
<g clip-path="url(#clip0_6446_36505)">
<rect x="33" y="22" width="325" height="183" rx="8" fill="url(#paint0_linear_6446_36505)"/>
<path d="M137.811 39.3313H137.589C78.7679 39.3125 31.4957 31.6412 31.025 31.5637C30.8213 31.5302 30.6834 31.3379 30.717 31.1342C30.7504 30.9305 30.9428 30.7923 31.1465 30.8261C31.6166 30.9034 78.8386 38.5658 137.601 38.5837H137.811C172.235 38.5837 203.836 35.9956 231.74 30.8906C266.673 24.5 295.873 14.1258 318.53 0.0562012C318.705 -0.0527009 318.936 0.00157425 319.044 0.176541C319.153 0.352005 319.099 0.582467 318.924 0.691395C296.186 14.8114 266.896 25.2197 231.869 31.6272C203.923 36.7392 172.275 39.3313 137.811 39.3313Z" fill="white" fill-opacity="0.16"/>
<path d="M296.695 42.4324C287.188 42.4324 277.577 42.042 267.885 41.2597C243.144 39.2627 217.831 34.7226 192.649 27.7653C158.342 18.2867 131.103 5.9894 121.494 0.811141C121.312 0.713305 121.244 0.486504 121.342 0.304835C121.44 0.123166 121.667 0.0553841 121.848 0.153096C131.438 5.31967 158.622 17.5904 192.869 27.0504C218.003 33.9931 243.267 38.5235 267.958 40.5156C298.817 43.0054 328.866 41.5148 357.268 36.0854C357.468 36.046 357.666 36.1796 357.705 36.3823C357.744 36.5851 357.611 36.7809 357.408 36.8196C337.858 40.5569 317.528 42.4324 296.695 42.4324Z" fill="white" fill-opacity="0.16"/>
<g opacity="0.52">
<mask id="path-4-inside-1_6446_36505" fill="white">
<path d="M149.855 120.597V120.651C149.853 120.634 149.852 120.616 149.85 120.597H149.855Z"/>
</mask>
<path d="M149.855 120.597V120.651C149.853 120.634 149.852 120.616 149.85 120.597H149.855Z" fill="url(#paint1_linear_6446_36505)"/>
<path d="M149.855 120.597H150.127V120.326H149.855V120.597ZM149.855 120.651L149.585 120.681L150.127 120.651H149.855ZM149.85 120.597V120.326H149.55L149.579 120.624L149.85 120.597ZM149.855 120.597H149.584V120.651H149.855H150.127V120.597H149.855ZM149.855 120.651L150.125 120.621C150.123 120.604 150.122 120.588 150.12 120.57L149.85 120.597L149.579 120.624C149.581 120.645 149.583 120.664 149.585 120.681L149.855 120.651ZM149.85 120.597V120.869H149.855V120.597V120.326H149.85V120.597Z" fill="url(#paint2_linear_6446_36505)" mask="url(#path-4-inside-1_6446_36505)"/>
<mask id="path-6-inside-2_6446_36505" fill="white">
<path d="M256.49 120.597V120.651C256.488 120.634 256.486 120.616 256.484 120.597H256.49Z"/>
</mask>
<path d="M256.49 120.597V120.651C256.488 120.634 256.486 120.616 256.484 120.597H256.49Z" fill="url(#paint3_linear_6446_36505)"/>
<path d="M256.49 120.597H256.762V120.326H256.49V120.597ZM256.49 120.651L256.22 120.681L256.762 120.651H256.49ZM256.484 120.597V120.326H256.184L256.214 120.624L256.484 120.597ZM256.49 120.597H256.218V120.651H256.49H256.762V120.597H256.49ZM256.49 120.651L256.76 120.621C256.758 120.604 256.756 120.588 256.755 120.57L256.484 120.597L256.214 120.624C256.216 120.645 256.218 120.664 256.22 120.681L256.49 120.651ZM256.484 120.597V120.869H256.49V120.597V120.326H256.484V120.597Z" fill="url(#paint4_linear_6446_36505)" mask="url(#path-6-inside-2_6446_36505)"/>
<path d="M85.2314 81.9407L85.6445 94.8284L85.6475 94.9309L85.7471 94.9563C87.0851 95.2962 89.1343 96.0163 91.0078 97.5793C94.2383 100.273 94.701 103.603 94.7939 104.54V104.635H75.5859L75.583 104.533C75.5644 103.752 75.6058 100.913 78.041 98.2961C80.206 95.969 83.0147 95.1662 84.3887 94.8928L84.4941 94.8713L84.498 94.7639L84.9092 81.9407H85.2314Z" fill="url(#paint5_linear_6446_36505)" stroke="url(#paint6_linear_6446_36505)" stroke-width="0.271585"/>
<path d="M300.003 81.9404L300.417 94.8135L300.42 94.916L300.52 94.9404C301.774 95.2517 303.682 95.9028 305.483 97.291L305.841 97.5791C308.678 99.9443 309.382 102.8 309.573 104.096L309.628 104.55V104.635H290.421L290.419 104.533C290.401 103.751 290.442 100.913 292.874 98.2969C295.009 96.0035 297.769 95.1899 299.162 94.9033L299.267 94.8818L299.271 94.7754L299.682 81.9404H300.003Z" fill="url(#paint7_linear_6446_36505)" stroke="url(#paint8_linear_6446_36505)" stroke-width="0.271585"/>
<path d="M309.628 107.013V117.566H290.415V107.013H309.628ZM296.369 110.936L296.356 110.907C296.169 110.522 295.9 110.049 295.513 109.569C295.011 108.945 294.495 108.54 294.107 108.285L294.034 108.238L293.96 108.283C293.544 108.546 292.963 108.992 292.425 109.716V109.717C292.12 110.128 291.899 110.531 291.74 110.874L291.728 110.902L291.729 110.932C291.734 111.526 291.739 112.12 291.744 112.714C291.75 113.308 291.755 113.903 291.761 114.497L291.762 114.632H296.369V110.936ZM302.398 110.936L302.384 110.907C302.197 110.521 301.925 110.049 301.538 109.569C301.036 108.945 300.523 108.54 300.135 108.285L300.063 108.238L299.989 108.283C299.572 108.546 298.99 108.992 298.451 109.716V109.717C298.146 110.128 297.927 110.531 297.769 110.874L297.756 110.902L297.757 110.932C297.762 111.526 297.766 112.12 297.772 112.714C297.777 113.308 297.783 113.903 297.787 114.497L297.788 114.632H302.398V110.936ZM308.424 110.936L308.41 110.908C308.225 110.522 307.953 110.049 307.567 109.569C307.064 108.945 306.55 108.54 306.164 108.285L306.091 108.238L306.017 108.283C305.598 108.547 305.018 108.992 304.48 109.716V109.717C304.175 110.128 303.954 110.531 303.796 110.874L303.783 110.902V110.932C303.789 111.526 303.795 112.12 303.8 112.714C303.805 113.308 303.81 113.903 303.816 114.497L303.818 114.632H308.288V114.496H308.424V110.936Z" fill="url(#paint9_linear_6446_36505)" stroke="url(#paint10_linear_6446_36505)" stroke-width="0.271585"/>
<path d="M94.7939 107.013V117.566H75.5811V107.013H94.7939ZM81.458 110.936L81.4443 110.907C81.2573 110.522 80.9861 110.049 80.5996 109.569C80.0978 108.945 79.5846 108.54 79.1963 108.285L79.123 108.238L79.0488 108.283C78.6327 108.546 78.0503 108.992 77.5117 109.716V109.717C77.2066 110.128 76.9881 110.531 76.8301 110.874L76.8174 110.902V110.932C76.8272 112.121 76.8381 113.309 76.8477 114.497L76.8496 114.632H81.458V110.936ZM87.4844 110.936L87.4707 110.908C87.2854 110.522 87.0145 110.049 86.6279 109.569C86.1256 108.945 85.6107 108.54 85.2246 108.285L85.1514 108.238L85.0771 108.283C84.6588 108.547 84.0784 108.992 83.54 109.716V109.717C83.2351 110.128 83.0146 110.531 82.8564 110.874L82.8438 110.902V110.932C82.8495 111.526 82.8551 112.12 82.8604 112.714C82.8656 113.308 82.8703 113.903 82.876 114.497L82.8779 114.632H87.4844V110.936ZM93.5127 110.936L93.499 110.907C93.312 110.522 93.0408 110.049 92.6543 109.569C92.1524 108.945 91.6393 108.54 91.251 108.285L91.1777 108.238L91.1045 108.283C90.6884 108.546 90.1059 108.992 89.5674 109.716V109.717C89.2622 110.128 89.0428 110.531 88.8848 110.874L88.8721 110.902V110.932C88.8819 112.121 88.8938 113.309 88.9033 114.497L88.9043 114.632H93.5137V114.496L93.5127 110.967V110.936Z" fill="url(#paint11_linear_6446_36505)" stroke="url(#paint12_linear_6446_36505)" stroke-width="0.271585"/>
<path d="M140.11 97.7808L140.521 110.548L140.523 110.651L140.623 110.675C141.961 111.007 144.037 111.726 145.934 113.308C148.97 115.843 149.559 118.938 149.695 120.079H130.51C130.51 119.101 130.697 116.467 132.967 114.028C135.111 111.724 137.883 110.914 139.272 110.631L139.378 110.61L139.382 110.502L139.789 97.7808H140.11Z" fill="url(#paint13_linear_6446_36505)" stroke="url(#paint14_linear_6446_36505)" stroke-width="0.271585"/>
<path d="M246.746 97.7808L247.155 110.548L247.158 110.651L247.258 110.675C248.596 111.007 250.672 111.726 252.57 113.308C255.607 115.843 256.196 118.939 256.33 120.079H237.146C237.146 119.101 237.333 116.467 239.602 114.028C241.747 111.724 244.52 110.914 245.907 110.631L246.013 110.61L246.017 110.502L246.424 97.7808H246.746Z" fill="url(#paint15_linear_6446_36505)" stroke="url(#paint16_linear_6446_36505)" stroke-width="0.271585"/>
<mask id="path-14-inside-3_6446_36505" fill="white">
<path d="M345.223 175.188C340.308 170.402 334.875 168.546 331.914 167.797L331.872 165.579H333.214V164.656H331.855L331.746 158.816H332.615V158.165H331.734L331.589 150.395H330.835L330.689 158.165H329.733V158.816H330.678L330.569 164.656H329.133V165.579H330.552L330.51 167.782C327.702 168.352 320.546 170.335 315.119 177.142C311.705 181.423 310.317 185.929 309.764 189.293V118.754H290.28V161.015C288.785 157.476 285.25 150.491 277.76 144.734C272.839 140.954 267.98 139.059 264.616 138.076L264.049 124.18C264.899 124.482 265.816 124.647 266.769 124.647C269.333 124.647 271.62 123.458 273.109 121.602C272.206 121.948 271.226 122.138 270.2 122.138C265.712 122.138 262.074 118.5 262.074 114.012C262.074 112.089 262.742 110.322 263.86 108.929C260.807 110.1 258.641 113.057 258.641 116.519C258.641 119.889 260.692 122.781 263.615 124.011L263.042 138.082C261.355 138.466 259.056 139.128 256.49 140.305V121.709H237.007V134.972C235.128 127.479 231.021 116.988 221.867 107.565C210.798 96.1718 198.159 92.3213 192.445 90.9815L192.228 86.5588L192.184 85.646H191.539L191.499 86.4822L191.279 90.9699C185.972 92.1374 172.333 95.9763 161.045 108.619C155.346 115.003 151.922 121.753 149.855 127.678V121.709H130.371V142.15C126.856 140.045 123.57 138.822 121.088 138.093L120.521 124.647H120.565C123.13 124.647 125.416 123.458 126.906 121.602C126.002 121.948 125.022 122.138 123.997 122.138C119.509 122.138 115.871 118.5 115.871 114.012C115.871 112.089 116.539 110.322 117.656 108.929C114.604 110.1 112.438 113.057 112.438 116.519C112.438 120.846 115.819 124.383 120.083 124.631L119.517 138.068C116.304 138.795 110.819 140.535 105.504 144.967C98.425 150.871 95.8185 158.073 94.9305 161.015V118.754H75.4462V182.906C74.1659 180.35 72.3612 177.668 69.8119 175.188C64.9125 170.417 59.5003 168.557 56.5341 167.803L56.492 165.579H57.8336V164.657H56.4749L56.3657 158.816H57.2326V158.165H56.3521L56.2068 150.395H55.4548L55.3093 158.165H54.3506V158.816H55.2959L55.1868 164.657H53.7514V165.579H55.1697L55.1276 167.776C52.3373 168.341 45.155 170.314 39.7102 177.142C34.0569 184.231 33.9613 191.934 34.0053 194.058V235.264H45.3771V226.753C45.4575 225.142 45.8614 221.368 48.4545 217.536C51.0725 213.665 54.4695 211.885 55.9374 211.217C57.6712 212.149 60.3716 213.885 62.8137 216.894C65.9407 220.746 66.2623 224.688 66.6775 226.754V235.264H320.807V226.754C320.888 225.142 321.291 221.368 323.884 217.537C326.503 213.665 329.9 211.885 331.367 211.218C333.101 212.15 335.802 213.885 338.244 216.894C341.371 220.746 341.692 224.689 342.108 226.754V235.264H354V194.058C353.791 191.551 352.733 182.503 345.223 175.188ZM40.6304 202.004H37.1951C37.1856 201.062 37.178 200.121 37.1701 199.179C37.2926 198.913 37.4629 198.601 37.6983 198.282C38.1155 197.721 38.5652 197.376 38.8868 197.174C39.1872 197.373 39.5853 197.686 39.9758 198.169C40.2762 198.542 40.4848 198.909 40.6304 199.208V202.004ZM45.7688 202.004H42.3316C42.324 201.062 42.3164 200.121 42.3066 199.179C42.4291 198.913 42.6013 198.601 42.8367 198.282C43.2539 197.721 43.7036 197.376 44.0252 197.174C44.3255 197.373 44.7237 197.686 45.1123 198.169C45.4127 198.542 45.6232 198.909 45.7688 199.208V202.004ZM50.9074 202.004H47.4702C47.4626 201.062 47.455 200.121 47.4452 199.179C47.5677 198.913 47.738 198.601 47.9754 198.282C48.3925 197.721 48.8423 197.376 49.1638 197.174C49.4642 197.373 49.8623 197.686 50.251 198.169C50.5514 198.542 50.7621 198.909 50.9074 199.208V202.004ZM56.0458 202.004H52.6086C52.601 201.062 52.5915 200.121 52.5836 199.179C52.7061 198.913 52.8764 198.601 53.1138 198.282C53.5309 197.721 53.9807 197.376 54.3022 197.174C54.6007 197.373 55.0007 197.686 55.3894 198.169C55.6897 198.542 55.9005 198.909 56.0458 199.208V202.004ZM61.1823 202.004H57.747C57.7394 201.062 57.7299 200.121 57.722 199.179C57.8445 198.913 58.0148 198.601 58.2521 198.282C58.6693 197.721 59.1171 197.376 59.4406 197.174C59.7391 197.373 60.1372 197.686 60.5278 198.169C60.8281 198.542 61.0389 198.909 61.1823 199.208V202.004ZM66.3209 202.004H62.8857C62.8761 201.062 62.8685 200.121 62.8607 199.179C62.9831 198.913 63.1534 198.601 63.3889 198.282C63.808 197.721 64.2558 197.376 64.5774 197.174C64.8777 197.373 65.2759 197.686 65.6664 198.169C65.9668 198.542 66.1754 198.909 66.3209 199.208V202.004ZM71.4593 202.004H68.0221C68.0145 201.062 68.0069 200.121 67.9993 199.179C68.1218 198.913 68.2921 198.601 68.5276 198.282C68.9447 197.721 69.3944 197.376 69.716 197.174C70.0164 197.373 70.4145 197.686 70.8051 198.169C71.1035 198.542 71.314 198.909 71.4596 199.208L71.4593 202.004ZM76.598 202.004H73.1608C73.1532 201.062 73.1456 200.121 73.1358 199.179C73.2583 198.913 73.4286 198.601 73.6659 198.282C74.0831 197.721 74.5328 197.376 74.8544 197.174C75.1548 197.373 75.5529 197.686 75.9415 198.169C76.2419 198.542 76.4524 198.909 76.598 199.208V202.004ZM110.987 173.326C111.406 172.765 111.854 172.421 112.177 172.218C112.476 172.415 112.874 172.729 113.264 173.213C113.565 173.584 113.775 173.952 113.919 174.252V177.048H110.483C110.474 176.107 110.466 175.165 110.458 174.223C110.581 173.958 110.751 173.644 110.987 173.326ZM105.234 173.326C105.653 172.765 106.101 172.421 106.424 172.218C106.723 172.415 107.121 172.729 107.511 173.213C107.812 173.584 108.022 173.952 108.166 174.252V177.048H104.731C104.721 176.107 104.714 175.165 104.706 174.223C104.828 173.958 104.998 173.644 105.234 173.326ZM99.4811 173.326C99.9002 172.765 100.348 172.421 100.672 172.218C100.97 172.415 101.368 172.729 101.759 173.213C102.059 173.584 102.269 173.952 102.413 174.252V177.048H98.9779C98.9684 176.107 98.9608 175.165 98.9529 174.223C99.0754 173.958 99.2457 173.644 99.4811 173.326ZM119.672 232.148H97.6056V199.589C97.686 197.978 98.0898 194.204 100.683 190.372C103.301 186.501 106.698 184.721 108.166 184.053C109.9 184.985 112.6 186.723 115.042 189.729C118.169 193.582 119.256 197.524 119.672 199.589V232.148ZM119.672 177.048H116.236C116.227 176.107 116.219 175.165 116.211 174.224C116.334 173.958 116.504 173.644 116.74 173.326C117.159 172.765 117.606 172.421 117.93 172.218C118.228 172.415 118.627 172.729 119.017 173.213C119.317 173.584 119.528 173.952 119.672 174.252V177.048ZM138.595 124.059C139.121 123.351 139.69 122.917 140.096 122.661C140.474 122.909 140.976 123.306 141.468 123.916C141.846 124.387 142.113 124.85 142.296 125.229V128.758H137.958C137.948 127.569 137.937 126.381 137.927 125.193C138.082 124.855 138.297 124.461 138.595 124.059ZM142.683 174.252V177.048H139.248C139.238 176.107 139.231 175.165 139.223 174.224C139.345 173.958 139.515 173.644 139.751 173.326C140.17 172.765 140.618 172.421 140.941 172.218C141.24 172.415 141.638 172.729 142.028 173.213C142.329 173.585 142.539 173.952 142.683 174.252ZM136.93 174.252V177.048H133.495C133.485 176.107 133.478 175.165 133.47 174.224C133.592 173.958 133.762 173.644 133.998 173.326C134.417 172.765 134.865 172.421 135.188 172.218C135.487 172.415 135.885 172.729 136.275 173.213C136.576 173.585 136.787 173.952 136.93 174.252ZM132.569 124.059C133.095 123.351 133.661 122.917 134.067 122.661C134.446 122.909 134.95 123.306 135.441 123.916C135.82 124.387 136.086 124.85 136.268 125.229V128.758H131.931C131.92 127.569 131.91 126.381 131.899 125.193C132.054 124.855 132.27 124.461 132.569 124.059ZM128.245 173.326C128.664 172.765 129.112 172.421 129.436 172.218C129.734 172.415 130.132 172.729 130.523 173.213C130.823 173.584 131.034 173.952 131.177 174.252V177.048H127.742C127.732 176.107 127.725 175.165 127.717 174.223C127.839 173.958 128.01 173.644 128.245 173.326ZM145.115 232.148H123.049V199.589C123.13 197.978 123.533 194.204 126.127 190.372C128.745 186.501 132.142 184.721 133.61 184.053C135.343 184.985 138.044 186.723 140.486 189.729C143.613 193.582 144.7 197.524 145.115 199.589V232.148ZM148.323 128.758H143.986C143.975 127.569 143.965 126.381 143.954 125.193C144.109 124.856 144.325 124.461 144.623 124.059C145.15 123.351 145.716 122.917 146.124 122.661C146.501 122.909 147.004 123.306 147.496 123.916C147.875 124.387 148.141 124.85 148.323 125.229L148.323 128.758ZM230.099 153.855C230.516 153.294 230.966 152.95 231.287 152.747C231.588 152.944 231.986 153.258 232.375 153.742C232.675 154.114 232.886 154.483 233.031 154.782V157.578H229.594C229.586 156.636 229.579 155.694 229.571 154.753C229.693 154.487 229.864 154.173 230.099 153.855ZM224.424 153.855C224.842 153.294 225.289 152.95 225.613 152.747C225.911 152.944 226.31 153.258 226.7 153.742C227 154.114 227.211 154.483 227.355 154.782V157.578H223.919C223.912 156.636 223.902 155.694 223.895 154.753C224.017 154.487 224.187 154.173 224.424 153.855ZM218.748 153.855C219.166 153.294 219.615 152.95 219.937 152.747C220.237 152.944 220.635 153.258 221.024 153.742C221.324 154.114 221.535 154.483 221.68 154.782V157.578H218.243C218.235 156.636 218.228 155.694 218.218 154.753C218.341 154.487 218.511 154.173 218.748 153.855ZM213.072 153.855C213.491 153.294 213.939 152.95 214.26 152.747C214.561 152.944 214.959 153.258 215.349 153.742C215.65 154.114 215.858 154.483 216.004 154.782V157.578H212.569C212.559 156.636 212.552 155.694 212.544 154.753C212.666 154.487 212.837 154.173 213.072 153.855ZM201.721 153.855C202.139 153.294 202.588 152.95 202.91 152.747C203.21 152.944 203.608 153.258 203.997 153.742C204.297 154.114 204.508 154.483 204.653 154.782V157.578H201.216C201.209 156.636 201.201 155.694 201.191 154.753C201.316 154.487 201.486 154.173 201.721 153.855ZM196.047 153.855C196.464 153.294 196.912 152.95 197.235 152.747C197.534 152.944 197.932 153.258 198.322 153.742C198.623 154.114 198.834 154.483 198.977 154.782V157.578H195.542C195.532 156.636 195.525 155.694 195.517 154.753C195.639 154.487 195.81 154.173 196.047 153.855ZM190.37 153.855C190.788 153.294 191.237 152.95 191.559 152.747C191.859 152.944 192.257 153.258 192.646 153.742C192.946 154.114 193.157 154.483 193.303 154.782V157.578H189.865C189.858 156.636 189.85 155.694 189.84 154.753C189.963 154.487 190.133 154.173 190.37 153.855ZM184.694 153.855C185.113 153.294 185.561 152.95 185.883 152.747C186.183 152.944 186.581 153.258 186.972 153.742C187.272 154.114 187.481 154.483 187.626 154.782V157.578H184.191C184.181 156.636 184.174 155.694 184.166 154.753C184.289 154.487 184.459 154.173 184.694 153.855ZM167.669 153.855C168.086 153.294 168.534 152.95 168.858 152.747C169.156 152.944 169.554 153.258 169.945 153.742C170.245 154.114 170.456 154.483 170.599 154.782V157.578H167.164C167.155 156.636 167.147 155.694 167.139 154.753C167.262 154.487 167.432 154.173 167.669 153.855ZM161.993 153.855C162.41 153.294 162.86 152.95 163.181 152.747C163.482 152.944 163.88 153.258 164.268 153.742C164.569 154.114 164.78 154.483 164.925 154.782V157.578H161.488C161.48 156.636 161.473 155.694 161.463 154.753C161.586 154.487 161.756 154.173 161.993 153.855ZM156.317 153.855C156.734 153.294 157.184 152.95 157.505 152.747C157.806 152.944 158.204 153.258 158.594 153.742C158.895 154.114 159.103 154.483 159.249 154.782V157.578H155.814C155.804 156.636 155.796 155.694 155.789 154.753C155.911 154.487 156.081 154.173 156.317 153.855ZM150.112 154.753C150.235 154.487 150.405 154.173 150.642 153.855C151.059 153.294 151.507 152.95 151.831 152.747C152.129 152.944 152.529 153.258 152.918 153.742C153.218 154.114 153.429 154.483 153.572 154.782V157.578H150.137C150.13 156.636 150.12 155.694 150.112 154.753ZM175.711 232.148H150.43V194.847C150.522 193 150.985 188.677 153.955 184.288C156.956 179.852 160.847 177.812 162.529 177.048C164.515 178.116 167.608 180.107 170.406 183.551C173.989 187.965 175.234 192.481 175.711 194.847V232.148ZM176.276 157.578H172.838C172.831 156.636 172.823 155.694 172.813 154.753C172.936 154.487 173.108 154.173 173.343 153.855C173.761 153.294 174.21 152.95 174.532 152.747C174.832 152.944 175.23 153.258 175.619 153.742C175.919 154.114 176.13 154.483 176.276 154.782V157.578ZM178.49 154.753C178.612 154.487 178.783 154.173 179.02 153.855C179.437 153.294 179.885 152.95 180.208 152.747C180.507 152.944 180.907 153.258 181.295 153.742C181.596 154.114 181.806 154.483 181.95 154.782V157.578H178.515C178.507 156.636 178.498 155.694 178.49 154.753ZM205.687 232.148H180.407V194.847C180.499 193 180.96 188.677 183.933 184.288C186.931 179.852 190.822 177.812 192.504 177.048C194.491 178.116 197.585 180.107 200.383 183.551C203.966 187.965 205.21 192.481 205.687 194.847L205.687 232.148ZM210.33 157.578H206.892C206.885 156.636 206.875 155.694 206.867 154.753C206.99 154.487 207.16 154.173 207.398 153.855C207.815 153.294 208.264 152.95 208.586 152.747C208.884 152.944 209.284 153.258 209.673 153.742C209.973 154.114 210.184 154.483 210.329 154.782L210.33 157.578ZM235.662 232.148H210.383V194.847C210.475 193 210.938 188.677 213.908 184.288C216.907 179.852 220.8 177.812 222.48 177.048C224.467 178.116 227.561 180.107 230.359 183.551C233.942 187.965 235.186 192.481 235.662 194.847L235.662 232.148ZM283.664 173.326C284.081 172.765 284.529 172.421 284.852 172.218C285.151 172.415 285.549 172.729 285.94 173.213C286.24 173.584 286.45 173.952 286.594 174.252V177.048H283.159C283.151 176.107 283.142 175.165 283.134 174.223C283.256 173.958 283.427 173.644 283.664 173.326ZM277.911 173.326C278.328 172.765 278.776 172.421 279.099 172.218C279.398 172.415 279.796 172.729 280.187 173.213C280.487 173.584 280.698 173.952 280.841 174.252V177.048H277.406C277.398 176.107 277.389 175.165 277.381 174.223C277.504 173.958 277.674 173.644 277.911 173.326ZM272.158 173.326C272.575 172.765 273.023 172.421 273.347 172.218C273.645 172.415 274.043 172.729 274.434 173.213C274.734 173.584 274.945 173.952 275.088 174.252V177.048H271.653C271.645 176.107 271.636 175.165 271.628 174.223C271.751 173.958 271.921 173.644 272.158 173.326ZM256.088 172.218C256.387 172.415 256.785 172.729 257.175 173.213C257.476 173.584 257.687 173.952 257.83 174.252V177.048H254.395C254.387 176.107 254.378 175.165 254.37 174.223C254.492 173.957 254.662 173.644 254.9 173.326C255.317 172.765 255.765 172.421 256.088 172.218ZM251.258 124.059C251.784 123.351 252.352 122.917 252.758 122.661C253.137 122.909 253.639 123.306 254.13 123.916C254.509 124.387 254.775 124.85 254.959 125.229V128.758H250.62C250.611 127.569 250.599 126.381 250.59 125.193C250.745 124.855 250.959 124.461 251.258 124.059ZM250.335 172.218C250.634 172.415 251.032 172.729 251.422 173.213C251.723 173.584 251.933 173.952 252.077 174.252V177.048H248.641C248.634 176.107 248.624 175.165 248.616 174.223C248.739 173.957 248.909 173.644 249.147 173.326C249.564 172.765 250.012 172.421 250.335 172.218ZM245.231 124.059C245.757 123.351 246.324 122.917 246.732 122.661C247.109 122.909 247.612 123.306 248.104 123.916C248.483 124.387 248.749 124.85 248.93 125.229V128.758H244.594C244.582 127.569 244.573 126.381 244.561 125.193C244.716 124.855 244.933 124.461 245.231 124.059ZM244.583 172.218C244.881 172.415 245.279 172.729 245.669 173.213C245.97 173.584 246.18 173.952 246.324 174.252V177.048H242.889C242.881 176.107 242.872 175.165 242.864 174.223C242.986 173.957 243.157 173.644 243.394 173.326C243.811 172.765 244.259 172.421 244.583 172.218ZM238.535 125.193C238.69 124.856 238.904 124.461 239.203 124.059C239.729 123.351 240.298 122.917 240.703 122.661C241.082 122.909 241.583 123.306 242.075 123.916C242.454 124.387 242.72 124.85 242.904 125.229V128.758H238.565C238.556 127.569 238.544 126.381 238.535 125.193ZM263.043 232.148H240.977V199.589C241.057 197.978 241.461 194.204 244.054 190.372C246.672 186.501 250.069 184.721 251.537 184.053C253.271 184.985 255.972 186.723 258.413 189.729C261.54 193.582 262.628 197.524 263.043 199.589V232.148ZM263.582 177.048H260.147C260.14 176.107 260.13 175.165 260.122 174.224C260.245 173.958 260.415 173.644 260.653 173.326C261.07 172.765 261.518 172.421 261.841 172.218C262.139 172.415 262.538 172.729 262.928 173.213C263.229 173.584 263.439 173.952 263.583 174.252L263.582 177.048ZM265.875 174.224C265.998 173.958 266.168 173.644 266.406 173.326C266.823 172.765 267.271 172.421 267.594 172.218C267.892 172.415 268.291 172.729 268.681 173.213C268.981 173.584 269.192 173.952 269.335 174.252V177.048H265.9C265.893 176.107 265.883 175.165 265.875 174.224ZM288.487 232.148H266.421V199.589C266.501 197.978 266.905 194.204 269.498 190.372C272.116 186.501 275.513 184.721 276.981 184.053C278.715 184.985 281.415 186.723 283.857 189.729C286.984 193.582 288.071 197.524 288.487 199.589V232.148ZM314.556 202.004H311.121C311.113 201.062 311.104 200.121 311.096 199.179C311.218 198.913 311.389 198.601 311.626 198.282C312.043 197.721 312.491 197.376 312.814 197.174C313.113 197.373 313.513 197.686 313.902 198.169C314.202 198.542 314.412 198.909 314.556 199.208V202.004ZM319.695 202.004H316.259C316.25 201.062 316.242 200.121 316.234 199.179C316.357 198.913 316.527 198.601 316.765 198.282C317.182 197.721 317.63 197.376 317.953 197.174C318.252 197.373 318.65 197.686 319.04 198.169C319.341 198.542 319.551 198.909 319.695 199.208V202.004ZM324.833 202.004H321.398C321.388 201.062 321.381 200.121 321.373 199.179C321.495 198.913 321.666 198.601 321.901 198.282C322.32 197.721 322.768 197.376 323.09 197.174C323.39 197.373 323.788 197.686 324.179 198.169C324.479 198.542 324.688 198.909 324.833 199.208V202.004ZM329.972 202.004H326.535C326.527 201.062 326.519 200.121 326.51 199.179C326.634 198.913 326.804 198.601 327.04 198.282C327.457 197.721 327.907 197.376 328.228 197.174C328.529 197.373 328.927 197.686 329.315 198.169C329.616 198.542 329.826 198.909 329.972 199.208V202.004ZM335.11 202.004H331.673C331.665 201.062 331.658 200.121 331.648 199.179C331.771 198.913 331.941 198.601 332.178 198.282C332.595 197.721 333.045 197.376 333.367 197.174C333.667 197.373 334.065 197.686 334.454 198.169C334.754 198.542 334.965 198.909 335.11 199.208V202.004ZM340.249 202.004H336.812C336.804 201.062 336.795 200.121 336.787 199.179C336.909 198.913 337.079 198.601 337.317 198.282C337.734 197.721 338.184 197.376 338.505 197.174C338.804 197.373 339.204 197.686 339.592 198.169C339.893 198.542 340.104 198.909 340.249 199.208V202.004ZM345.385 202.004H341.95C341.942 201.062 341.933 200.121 341.925 199.179C342.048 198.913 342.218 198.601 342.455 198.282C342.872 197.721 343.32 197.376 343.644 197.174C343.942 197.373 344.34 197.686 344.731 198.169C345.031 198.542 345.242 198.909 345.385 199.208V202.004ZM350.524 202.004H347.089C347.079 201.062 347.072 200.121 347.064 199.179C347.186 198.913 347.357 198.601 347.592 198.282C348.011 197.721 348.459 197.376 348.782 197.174C349.081 197.373 349.479 197.686 349.869 198.169C350.17 198.542 350.38 198.909 350.524 199.208V202.004H350.524Z"/>
</mask>
<path d="M345.223 175.188C340.308 170.402 334.875 168.546 331.914 167.797L331.872 165.579H333.214V164.656H331.855L331.746 158.816H332.615V158.165H331.734L331.589 150.395H330.835L330.689 158.165H329.733V158.816H330.678L330.569 164.656H329.133V165.579H330.552L330.51 167.782C327.702 168.352 320.546 170.335 315.119 177.142C311.705 181.423 310.317 185.929 309.764 189.293V118.754H290.28V161.015C288.785 157.476 285.25 150.491 277.76 144.734C272.839 140.954 267.98 139.059 264.616 138.076L264.049 124.18C264.899 124.482 265.816 124.647 266.769 124.647C269.333 124.647 271.62 123.458 273.109 121.602C272.206 121.948 271.226 122.138 270.2 122.138C265.712 122.138 262.074 118.5 262.074 114.012C262.074 112.089 262.742 110.322 263.86 108.929C260.807 110.1 258.641 113.057 258.641 116.519C258.641 119.889 260.692 122.781 263.615 124.011L263.042 138.082C261.355 138.466 259.056 139.128 256.49 140.305V121.709H237.007V134.972C235.128 127.479 231.021 116.988 221.867 107.565C210.798 96.1718 198.159 92.3213 192.445 90.9815L192.228 86.5588L192.184 85.646H191.539L191.499 86.4822L191.279 90.9699C185.972 92.1374 172.333 95.9763 161.045 108.619C155.346 115.003 151.922 121.753 149.855 127.678V121.709H130.371V142.15C126.856 140.045 123.57 138.822 121.088 138.093L120.521 124.647H120.565C123.13 124.647 125.416 123.458 126.906 121.602C126.002 121.948 125.022 122.138 123.997 122.138C119.509 122.138 115.871 118.5 115.871 114.012C115.871 112.089 116.539 110.322 117.656 108.929C114.604 110.1 112.438 113.057 112.438 116.519C112.438 120.846 115.819 124.383 120.083 124.631L119.517 138.068C116.304 138.795 110.819 140.535 105.504 144.967C98.425 150.871 95.8185 158.073 94.9305 161.015V118.754H75.4462V182.906C74.1659 180.35 72.3612 177.668 69.8119 175.188C64.9125 170.417 59.5003 168.557 56.5341 167.803L56.492 165.579H57.8336V164.657H56.4749L56.3657 158.816H57.2326V158.165H56.3521L56.2068 150.395H55.4548L55.3093 158.165H54.3506V158.816H55.2959L55.1868 164.657H53.7514V165.579H55.1697L55.1276 167.776C52.3373 168.341 45.155 170.314 39.7102 177.142C34.0569 184.231 33.9613 191.934 34.0053 194.058V235.264H45.3771V226.753C45.4575 225.142 45.8614 221.368 48.4545 217.536C51.0725 213.665 54.4695 211.885 55.9374 211.217C57.6712 212.149 60.3716 213.885 62.8137 216.894C65.9407 220.746 66.2623 224.688 66.6775 226.754V235.264H320.807V226.754C320.888 225.142 321.291 221.368 323.884 217.537C326.503 213.665 329.9 211.885 331.367 211.218C333.101 212.15 335.802 213.885 338.244 216.894C341.371 220.746 341.692 224.689 342.108 226.754V235.264H354V194.058C353.791 191.551 352.733 182.503 345.223 175.188ZM40.6304 202.004H37.1951C37.1856 201.062 37.178 200.121 37.1701 199.179C37.2926 198.913 37.4629 198.601 37.6983 198.282C38.1155 197.721 38.5652 197.376 38.8868 197.174C39.1872 197.373 39.5853 197.686 39.9758 198.169C40.2762 198.542 40.4848 198.909 40.6304 199.208V202.004ZM45.7688 202.004H42.3316C42.324 201.062 42.3164 200.121 42.3066 199.179C42.4291 198.913 42.6013 198.601 42.8367 198.282C43.2539 197.721 43.7036 197.376 44.0252 197.174C44.3255 197.373 44.7237 197.686 45.1123 198.169C45.4127 198.542 45.6232 198.909 45.7688 199.208V202.004ZM50.9074 202.004H47.4702C47.4626 201.062 47.455 200.121 47.4452 199.179C47.5677 198.913 47.738 198.601 47.9754 198.282C48.3925 197.721 48.8423 197.376 49.1638 197.174C49.4642 197.373 49.8623 197.686 50.251 198.169C50.5514 198.542 50.7621 198.909 50.9074 199.208V202.004ZM56.0458 202.004H52.6086C52.601 201.062 52.5915 200.121 52.5836 199.179C52.7061 198.913 52.8764 198.601 53.1138 198.282C53.5309 197.721 53.9807 197.376 54.3022 197.174C54.6007 197.373 55.0007 197.686 55.3894 198.169C55.6897 198.542 55.9005 198.909 56.0458 199.208V202.004ZM61.1823 202.004H57.747C57.7394 201.062 57.7299 200.121 57.722 199.179C57.8445 198.913 58.0148 198.601 58.2521 198.282C58.6693 197.721 59.1171 197.376 59.4406 197.174C59.7391 197.373 60.1372 197.686 60.5278 198.169C60.8281 198.542 61.0389 198.909 61.1823 199.208V202.004ZM66.3209 202.004H62.8857C62.8761 201.062 62.8685 200.121 62.8607 199.179C62.9831 198.913 63.1534 198.601 63.3889 198.282C63.808 197.721 64.2558 197.376 64.5774 197.174C64.8777 197.373 65.2759 197.686 65.6664 198.169C65.9668 198.542 66.1754 198.909 66.3209 199.208V202.004ZM71.4593 202.004H68.0221C68.0145 201.062 68.0069 200.121 67.9993 199.179C68.1218 198.913 68.2921 198.601 68.5276 198.282C68.9447 197.721 69.3944 197.376 69.716 197.174C70.0164 197.373 70.4145 197.686 70.8051 198.169C71.1035 198.542 71.314 198.909 71.4596 199.208L71.4593 202.004ZM76.598 202.004H73.1608C73.1532 201.062 73.1456 200.121 73.1358 199.179C73.2583 198.913 73.4286 198.601 73.6659 198.282C74.0831 197.721 74.5328 197.376 74.8544 197.174C75.1548 197.373 75.5529 197.686 75.9415 198.169C76.2419 198.542 76.4524 198.909 76.598 199.208V202.004ZM110.987 173.326C111.406 172.765 111.854 172.421 112.177 172.218C112.476 172.415 112.874 172.729 113.264 173.213C113.565 173.584 113.775 173.952 113.919 174.252V177.048H110.483C110.474 176.107 110.466 175.165 110.458 174.223C110.581 173.958 110.751 173.644 110.987 173.326ZM105.234 173.326C105.653 172.765 106.101 172.421 106.424 172.218C106.723 172.415 107.121 172.729 107.511 173.213C107.812 173.584 108.022 173.952 108.166 174.252V177.048H104.731C104.721 176.107 104.714 175.165 104.706 174.223C104.828 173.958 104.998 173.644 105.234 173.326ZM99.4811 173.326C99.9002 172.765 100.348 172.421 100.672 172.218C100.97 172.415 101.368 172.729 101.759 173.213C102.059 173.584 102.269 173.952 102.413 174.252V177.048H98.9779C98.9684 176.107 98.9608 175.165 98.9529 174.223C99.0754 173.958 99.2457 173.644 99.4811 173.326ZM119.672 232.148H97.6056V199.589C97.686 197.978 98.0898 194.204 100.683 190.372C103.301 186.501 106.698 184.721 108.166 184.053C109.9 184.985 112.6 186.723 115.042 189.729C118.169 193.582 119.256 197.524 119.672 199.589V232.148ZM119.672 177.048H116.236C116.227 176.107 116.219 175.165 116.211 174.224C116.334 173.958 116.504 173.644 116.74 173.326C117.159 172.765 117.606 172.421 117.93 172.218C118.228 172.415 118.627 172.729 119.017 173.213C119.317 173.584 119.528 173.952 119.672 174.252V177.048ZM138.595 124.059C139.121 123.351 139.69 122.917 140.096 122.661C140.474 122.909 140.976 123.306 141.468 123.916C141.846 124.387 142.113 124.85 142.296 125.229V128.758H137.958C137.948 127.569 137.937 126.381 137.927 125.193C138.082 124.855 138.297 124.461 138.595 124.059ZM142.683 174.252V177.048H139.248C139.238 176.107 139.231 175.165 139.223 174.224C139.345 173.958 139.515 173.644 139.751 173.326C140.17 172.765 140.618 172.421 140.941 172.218C141.24 172.415 141.638 172.729 142.028 173.213C142.329 173.585 142.539 173.952 142.683 174.252ZM136.93 174.252V177.048H133.495C133.485 176.107 133.478 175.165 133.47 174.224C133.592 173.958 133.762 173.644 133.998 173.326C134.417 172.765 134.865 172.421 135.188 172.218C135.487 172.415 135.885 172.729 136.275 173.213C136.576 173.585 136.787 173.952 136.93 174.252ZM132.569 124.059C133.095 123.351 133.661 122.917 134.067 122.661C134.446 122.909 134.95 123.306 135.441 123.916C135.82 124.387 136.086 124.85 136.268 125.229V128.758H131.931C131.92 127.569 131.91 126.381 131.899 125.193C132.054 124.855 132.27 124.461 132.569 124.059ZM128.245 173.326C128.664 172.765 129.112 172.421 129.436 172.218C129.734 172.415 130.132 172.729 130.523 173.213C130.823 173.584 131.034 173.952 131.177 174.252V177.048H127.742C127.732 176.107 127.725 175.165 127.717 174.223C127.839 173.958 128.01 173.644 128.245 173.326ZM145.115 232.148H123.049V199.589C123.13 197.978 123.533 194.204 126.127 190.372C128.745 186.501 132.142 184.721 133.61 184.053C135.343 184.985 138.044 186.723 140.486 189.729C143.613 193.582 144.7 197.524 145.115 199.589V232.148ZM148.323 128.758H143.986C143.975 127.569 143.965 126.381 143.954 125.193C144.109 124.856 144.325 124.461 144.623 124.059C145.15 123.351 145.716 122.917 146.124 122.661C146.501 122.909 147.004 123.306 147.496 123.916C147.875 124.387 148.141 124.85 148.323 125.229L148.323 128.758ZM230.099 153.855C230.516 153.294 230.966 152.95 231.287 152.747C231.588 152.944 231.986 153.258 232.375 153.742C232.675 154.114 232.886 154.483 233.031 154.782V157.578H229.594C229.586 156.636 229.579 155.694 229.571 154.753C229.693 154.487 229.864 154.173 230.099 153.855ZM224.424 153.855C224.842 153.294 225.289 152.95 225.613 152.747C225.911 152.944 226.31 153.258 226.7 153.742C227 154.114 227.211 154.483 227.355 154.782V157.578H223.919C223.912 156.636 223.902 155.694 223.895 154.753C224.017 154.487 224.187 154.173 224.424 153.855ZM218.748 153.855C219.166 153.294 219.615 152.95 219.937 152.747C220.237 152.944 220.635 153.258 221.024 153.742C221.324 154.114 221.535 154.483 221.68 154.782V157.578H218.243C218.235 156.636 218.228 155.694 218.218 154.753C218.341 154.487 218.511 154.173 218.748 153.855ZM213.072 153.855C213.491 153.294 213.939 152.95 214.26 152.747C214.561 152.944 214.959 153.258 215.349 153.742C215.65 154.114 215.858 154.483 216.004 154.782V157.578H212.569C212.559 156.636 212.552 155.694 212.544 154.753C212.666 154.487 212.837 154.173 213.072 153.855ZM201.721 153.855C202.139 153.294 202.588 152.95 202.91 152.747C203.21 152.944 203.608 153.258 203.997 153.742C204.297 154.114 204.508 154.483 204.653 154.782V157.578H201.216C201.209 156.636 201.201 155.694 201.191 154.753C201.316 154.487 201.486 154.173 201.721 153.855ZM196.047 153.855C196.464 153.294 196.912 152.95 197.235 152.747C197.534 152.944 197.932 153.258 198.322 153.742C198.623 154.114 198.834 154.483 198.977 154.782V157.578H195.542C195.532 156.636 195.525 155.694 195.517 154.753C195.639 154.487 195.81 154.173 196.047 153.855ZM190.37 153.855C190.788 153.294 191.237 152.95 191.559 152.747C191.859 152.944 192.257 153.258 192.646 153.742C192.946 154.114 193.157 154.483 193.303 154.782V157.578H189.865C189.858 156.636 189.85 155.694 189.84 154.753C189.963 154.487 190.133 154.173 190.37 153.855ZM184.694 153.855C185.113 153.294 185.561 152.95 185.883 152.747C186.183 152.944 186.581 153.258 186.972 153.742C187.272 154.114 187.481 154.483 187.626 154.782V157.578H184.191C184.181 156.636 184.174 155.694 184.166 154.753C184.289 154.487 184.459 154.173 184.694 153.855ZM167.669 153.855C168.086 153.294 168.534 152.95 168.858 152.747C169.156 152.944 169.554 153.258 169.945 153.742C170.245 154.114 170.456 154.483 170.599 154.782V157.578H167.164C167.155 156.636 167.147 155.694 167.139 154.753C167.262 154.487 167.432 154.173 167.669 153.855ZM161.993 153.855C162.41 153.294 162.86 152.95 163.181 152.747C163.482 152.944 163.88 153.258 164.268 153.742C164.569 154.114 164.78 154.483 164.925 154.782V157.578H161.488C161.48 156.636 161.473 155.694 161.463 154.753C161.586 154.487 161.756 154.173 161.993 153.855ZM156.317 153.855C156.734 153.294 157.184 152.95 157.505 152.747C157.806 152.944 158.204 153.258 158.594 153.742C158.895 154.114 159.103 154.483 159.249 154.782V157.578H155.814C155.804 156.636 155.796 155.694 155.789 154.753C155.911 154.487 156.081 154.173 156.317 153.855ZM150.112 154.753C150.235 154.487 150.405 154.173 150.642 153.855C151.059 153.294 151.507 152.95 151.831 152.747C152.129 152.944 152.529 153.258 152.918 153.742C153.218 154.114 153.429 154.483 153.572 154.782V157.578H150.137C150.13 156.636 150.12 155.694 150.112 154.753ZM175.711 232.148H150.43V194.847C150.522 193 150.985 188.677 153.955 184.288C156.956 179.852 160.847 177.812 162.529 177.048C164.515 178.116 167.608 180.107 170.406 183.551C173.989 187.965 175.234 192.481 175.711 194.847V232.148ZM176.276 157.578H172.838C172.831 156.636 172.823 155.694 172.813 154.753C172.936 154.487 173.108 154.173 173.343 153.855C173.761 153.294 174.21 152.95 174.532 152.747C174.832 152.944 175.23 153.258 175.619 153.742C175.919 154.114 176.13 154.483 176.276 154.782V157.578ZM178.49 154.753C178.612 154.487 178.783 154.173 179.02 153.855C179.437 153.294 179.885 152.95 180.208 152.747C180.507 152.944 180.907 153.258 181.295 153.742C181.596 154.114 181.806 154.483 181.95 154.782V157.578H178.515C178.507 156.636 178.498 155.694 178.49 154.753ZM205.687 232.148H180.407V194.847C180.499 193 180.96 188.677 183.933 184.288C186.931 179.852 190.822 177.812 192.504 177.048C194.491 178.116 197.585 180.107 200.383 183.551C203.966 187.965 205.21 192.481 205.687 194.847L205.687 232.148ZM210.33 157.578H206.892C206.885 156.636 206.875 155.694 206.867 154.753C206.99 154.487 207.16 154.173 207.398 153.855C207.815 153.294 208.264 152.95 208.586 152.747C208.884 152.944 209.284 153.258 209.673 153.742C209.973 154.114 210.184 154.483 210.329 154.782L210.33 157.578ZM235.662 232.148H210.383V194.847C210.475 193 210.938 188.677 213.908 184.288C216.907 179.852 220.8 177.812 222.48 177.048C224.467 178.116 227.561 180.107 230.359 183.551C233.942 187.965 235.186 192.481 235.662 194.847L235.662 232.148ZM283.664 173.326C284.081 172.765 284.529 172.421 284.852 172.218C285.151 172.415 285.549 172.729 285.94 173.213C286.24 173.584 286.45 173.952 286.594 174.252V177.048H283.159C283.151 176.107 283.142 175.165 283.134 174.223C283.256 173.958 283.427 173.644 283.664 173.326ZM277.911 173.326C278.328 172.765 278.776 172.421 279.099 172.218C279.398 172.415 279.796 172.729 280.187 173.213C280.487 173.584 280.698 173.952 280.841 174.252V177.048H277.406C277.398 176.107 277.389 175.165 277.381 174.223C277.504 173.958 277.674 173.644 277.911 173.326ZM272.158 173.326C272.575 172.765 273.023 172.421 273.347 172.218C273.645 172.415 274.043 172.729 274.434 173.213C274.734 173.584 274.945 173.952 275.088 174.252V177.048H271.653C271.645 176.107 271.636 175.165 271.628 174.223C271.751 173.958 271.921 173.644 272.158 173.326ZM256.088 172.218C256.387 172.415 256.785 172.729 257.175 173.213C257.476 173.584 257.687 173.952 257.83 174.252V177.048H254.395C254.387 176.107 254.378 175.165 254.37 174.223C254.492 173.957 254.662 173.644 254.9 173.326C255.317 172.765 255.765 172.421 256.088 172.218ZM251.258 124.059C251.784 123.351 252.352 122.917 252.758 122.661C253.137 122.909 253.639 123.306 254.13 123.916C254.509 124.387 254.775 124.85 254.959 125.229V128.758H250.62C250.611 127.569 250.599 126.381 250.59 125.193C250.745 124.855 250.959 124.461 251.258 124.059ZM250.335 172.218C250.634 172.415 251.032 172.729 251.422 173.213C251.723 173.584 251.933 173.952 252.077 174.252V177.048H248.641C248.634 176.107 248.624 175.165 248.616 174.223C248.739 173.957 248.909 173.644 249.147 173.326C249.564 172.765 250.012 172.421 250.335 172.218ZM245.231 124.059C245.757 123.351 246.324 122.917 246.732 122.661C247.109 122.909 247.612 123.306 248.104 123.916C248.483 124.387 248.749 124.85 248.93 125.229V128.758H244.594C244.582 127.569 244.573 126.381 244.561 125.193C244.716 124.855 244.933 124.461 245.231 124.059ZM244.583 172.218C244.881 172.415 245.279 172.729 245.669 173.213C245.97 173.584 246.18 173.952 246.324 174.252V177.048H242.889C242.881 176.107 242.872 175.165 242.864 174.223C242.986 173.957 243.157 173.644 243.394 173.326C243.811 172.765 244.259 172.421 244.583 172.218ZM238.535 125.193C238.69 124.856 238.904 124.461 239.203 124.059C239.729 123.351 240.298 122.917 240.703 122.661C241.082 122.909 241.583 123.306 242.075 123.916C242.454 124.387 242.72 124.85 242.904 125.229V128.758H238.565C238.556 127.569 238.544 126.381 238.535 125.193ZM263.043 232.148H240.977V199.589C241.057 197.978 241.461 194.204 244.054 190.372C246.672 186.501 250.069 184.721 251.537 184.053C253.271 184.985 255.972 186.723 258.413 189.729C261.54 193.582 262.628 197.524 263.043 199.589V232.148ZM263.582 177.048H260.147C260.14 176.107 260.13 175.165 260.122 174.224C260.245 173.958 260.415 173.644 260.653 173.326C261.07 172.765 261.518 172.421 261.841 172.218C262.139 172.415 262.538 172.729 262.928 173.213C263.229 173.584 263.439 173.952 263.583 174.252L263.582 177.048ZM265.875 174.224C265.998 173.958 266.168 173.644 266.406 173.326C266.823 172.765 267.271 172.421 267.594 172.218C267.892 172.415 268.291 172.729 268.681 173.213C268.981 173.584 269.192 173.952 269.335 174.252V177.048H265.9C265.893 176.107 265.883 175.165 265.875 174.224ZM288.487 232.148H266.421V199.589C266.501 197.978 266.905 194.204 269.498 190.372C272.116 186.501 275.513 184.721 276.981 184.053C278.715 184.985 281.415 186.723 283.857 189.729C286.984 193.582 288.071 197.524 288.487 199.589V232.148ZM314.556 202.004H311.121C311.113 201.062 311.104 200.121 311.096 199.179C311.218 198.913 311.389 198.601 311.626 198.282C312.043 197.721 312.491 197.376 312.814 197.174C313.113 197.373 313.513 197.686 313.902 198.169C314.202 198.542 314.412 198.909 314.556 199.208V202.004ZM319.695 202.004H316.259C316.25 201.062 316.242 200.121 316.234 199.179C316.357 198.913 316.527 198.601 316.765 198.282C317.182 197.721 317.63 197.376 317.953 197.174C318.252 197.373 318.65 197.686 319.04 198.169C319.341 198.542 319.551 198.909 319.695 199.208V202.004ZM324.833 202.004H321.398C321.388 201.062 321.381 200.121 321.373 199.179C321.495 198.913 321.666 198.601 321.901 198.282C322.32 197.721 322.768 197.376 323.09 197.174C323.39 197.373 323.788 197.686 324.179 198.169C324.479 198.542 324.688 198.909 324.833 199.208V202.004ZM329.972 202.004H326.535C326.527 201.062 326.519 200.121 326.51 199.179C326.634 198.913 326.804 198.601 327.04 198.282C327.457 197.721 327.907 197.376 328.228 197.174C328.529 197.373 328.927 197.686 329.315 198.169C329.616 198.542 329.826 198.909 329.972 199.208V202.004ZM335.11 202.004H331.673C331.665 201.062 331.658 200.121 331.648 199.179C331.771 198.913 331.941 198.601 332.178 198.282C332.595 197.721 333.045 197.376 333.367 197.174C333.667 197.373 334.065 197.686 334.454 198.169C334.754 198.542 334.965 198.909 335.11 199.208V202.004ZM340.249 202.004H336.812C336.804 201.062 336.795 200.121 336.787 199.179C336.909 198.913 337.079 198.601 337.317 198.282C337.734 197.721 338.184 197.376 338.505 197.174C338.804 197.373 339.204 197.686 339.592 198.169C339.893 198.542 340.104 198.909 340.249 199.208V202.004ZM345.385 202.004H341.95C341.942 201.062 341.933 200.121 341.925 199.179C342.048 198.913 342.218 198.601 342.455 198.282C342.872 197.721 343.32 197.376 343.644 197.174C343.942 197.373 344.34 197.686 344.731 198.169C345.031 198.542 345.242 198.909 345.385 199.208V202.004ZM350.524 202.004H347.089C347.079 201.062 347.072 200.121 347.064 199.179C347.186 198.913 347.357 198.601 347.592 198.282C348.011 197.721 348.459 197.376 348.782 197.174C349.081 197.373 349.479 197.686 349.869 198.169C350.17 198.542 350.38 198.909 350.524 199.208V202.004H350.524Z" fill="url(#paint17_linear_6446_36505)" stroke="url(#paint18_linear_6446_36505)" stroke-width="0.543169" mask="url(#path-14-inside-3_6446_36505)"/>
<mask id="path-15-inside-4_6446_36505" fill="white">
<path d="M256.49 120.597V120.651C256.488 120.634 256.486 120.616 256.484 120.597H256.49Z"/>
</mask>
<path d="M256.49 120.597V120.651C256.488 120.634 256.486 120.616 256.484 120.597H256.49Z" fill="url(#paint19_linear_6446_36505)"/>
<path d="M256.49 120.597H256.762V120.326H256.49V120.597ZM256.49 120.651L256.22 120.681L256.762 120.651H256.49ZM256.484 120.597V120.326H256.184L256.214 120.624L256.484 120.597ZM256.49 120.597H256.218V120.651H256.49H256.762V120.597H256.49ZM256.49 120.651L256.76 120.621C256.758 120.604 256.756 120.588 256.755 120.57L256.484 120.597L256.214 120.624C256.216 120.645 256.218 120.664 256.22 120.681L256.49 120.651ZM256.484 120.597V120.869H256.49V120.597V120.326H256.484V120.597Z" fill="url(#paint20_linear_6446_36505)" mask="url(#path-15-inside-4_6446_36505)"/>
<mask id="path-17-inside-5_6446_36505" fill="white">
<path d="M149.855 120.597V120.651C149.853 120.634 149.852 120.616 149.85 120.597H149.855Z"/>
</mask>
<path d="M149.855 120.597V120.651C149.853 120.634 149.852 120.616 149.85 120.597H149.855Z" fill="url(#paint21_linear_6446_36505)"/>
<path d="M149.855 120.597H150.127V120.326H149.855V120.597ZM149.855 120.651L149.585 120.681L150.127 120.651H149.855ZM149.85 120.597V120.326H149.55L149.579 120.624L149.85 120.597ZM149.855 120.597H149.584V120.651H149.855H150.127V120.597H149.855ZM149.855 120.651L150.125 120.621C150.123 120.604 150.122 120.588 150.12 120.57L149.85 120.597L149.579 120.624C149.581 120.645 149.583 120.664 149.585 120.681L149.855 120.651ZM149.85 120.597V120.869H149.855V120.597V120.326H149.85V120.597Z" fill="url(#paint22_linear_6446_36505)" mask="url(#path-17-inside-5_6446_36505)"/>
<path d="M186.538 48.9219C184.004 52.2489 182.499 56.4005 182.499 60.9043C182.499 71.8399 191.365 80.706 202.301 80.7061C204.62 80.7063 206.846 80.3061 208.915 79.5713C205.335 83.8103 199.979 86.5029 193.995 86.5029C183.21 86.5029 174.465 77.7591 174.465 66.9736C174.465 58.8292 179.451 51.8512 186.538 48.9219Z" fill="url(#paint23_linear_6446_36505)" stroke="url(#paint24_linear_6446_36505)" stroke-width="0.271585"/>
<path d="M40.5871 121.257V120.167" stroke="url(#paint25_linear_6446_36505)" stroke-width="1.08971" stroke-miterlimit="10"/>
<path d="M40.5871 117.991V45.1028" stroke="url(#paint26_linear_6446_36505)" stroke-width="1.08971" stroke-miterlimit="10" stroke-dasharray="2.18 2.18"/>
<path d="M40.587 44.0149V42.9253" stroke="url(#paint27_linear_6446_36505)" stroke-width="1.08971" stroke-miterlimit="10"/>
<path d="M41.7795 121.681L41.7903 121.751L41.8528 121.782L44.6311 123.188L41.8508 124.593L41.7883 124.624L41.7776 124.693L41.2981 127.77L39.1037 125.56L39.0549 125.511L38.9865 125.522L35.9104 126.017L37.3352 123.247L37.3674 123.185L37.3352 123.123L35.9133 120.351L38.9885 120.849L39.0578 120.861L39.1067 120.811L41.3039 118.602L41.7795 121.681Z" fill="url(#paint28_linear_6446_36505)" stroke="url(#paint29_linear_6446_36505)" stroke-width="0.271585"/>
<path d="M126.026 64.1929V63.1033" stroke="url(#paint30_linear_6446_36505)" stroke-width="1.08971" stroke-miterlimit="10"/>
<path d="M126.026 60.9273V7.60571" stroke="url(#paint31_linear_6446_36505)" stroke-width="1.08971" stroke-miterlimit="10" stroke-dasharray="2.18 2.18"/>
<path d="M128.144 67.4995L128.189 67.5522L128.259 67.5474L131.692 67.2749L129.876 70.2017L129.839 70.2612L129.865 70.3257L131.183 73.5063L127.84 72.6831L127.772 72.6665L127.719 72.7114L125.101 74.9487L124.851 71.5142L124.846 71.4448L124.787 71.4077L121.848 69.6089L125.04 68.3101L125.104 68.2837L125.121 68.2163L125.922 64.8667L128.144 67.4995Z" fill="url(#paint32_linear_6446_36505)" stroke="url(#paint33_linear_6446_36505)" stroke-width="0.271585"/>
<path d="M248.62 69.1658V68.0759" stroke="url(#paint34_linear_6446_36505)" stroke-width="1.08971" stroke-miterlimit="10"/>
<path d="M248.62 65.9005V12.5786" stroke="url(#paint35_linear_6446_36505)" stroke-width="1.08971" stroke-miterlimit="10" stroke-dasharray="2.18 2.18"/>
<path d="M249.61 73.8967L249.62 73.9661L249.683 73.9983L252.332 75.3889L249.641 76.6995L249.578 76.7297L249.566 76.7981L249.062 79.7493L246.985 77.594L246.937 77.5432L246.868 77.554L243.906 77.9856L245.313 75.345L245.347 75.2834L245.315 75.2209L243.989 72.5374L246.936 73.0598L247.005 73.0715L247.055 73.0237L249.197 70.9329L249.61 73.8967Z" fill="url(#paint36_linear_6446_36505)" stroke="url(#paint37_linear_6446_36505)" stroke-width="0.271585"/>
<path d="M326.765 93.8989V92.8093" stroke="url(#paint38_linear_6446_36505)" stroke-width="1.08971" stroke-miterlimit="10"/>
<path d="M326.765 90.6335V17.7456" stroke="url(#paint39_linear_6446_36505)" stroke-width="1.08971" stroke-miterlimit="10" stroke-dasharray="2.18 2.18"/>
<path d="M328.012 97.7563L328.058 97.8081L328.127 97.8022L331.226 97.4995L329.631 100.174L329.595 100.234L329.623 100.298L330.866 103.151L327.831 102.461L327.763 102.447L327.711 102.493L325.381 104.557L325.1 101.458L325.093 101.387L325.033 101.352L322.349 99.7739L325.211 98.5493L325.276 98.521L325.29 98.4536L325.961 95.4136L328.012 97.7563Z" fill="url(#paint40_linear_6446_36505)" stroke="url(#paint41_linear_6446_36505)" stroke-width="0.271585"/>
<path d="M347.417 139.675V138.585" stroke="url(#paint42_linear_6446_36505)" stroke-width="1.08971" stroke-miterlimit="10"/>
<path d="M347.417 136.409V63.521" stroke="url(#paint43_linear_6446_36505)" stroke-width="1.08971" stroke-miterlimit="10" stroke-dasharray="2.18 2.18"/>
<path d="M347.417 62.4333V61.3438" stroke="url(#paint44_linear_6446_36505)" stroke-width="1.08971" stroke-miterlimit="10"/>
<path d="M349.838 143.91L349.858 143.978L349.923 144.001L352.857 145.044L350.276 146.788L350.219 146.827L350.217 146.896L350.131 150.009L347.676 148.095L347.621 148.052L347.555 148.071L344.568 148.95L345.63 146.024L345.653 145.959L345.614 145.901L343.855 143.333L346.966 143.438L347.036 143.441L347.078 143.386L348.978 140.918L349.838 143.91Z" fill="url(#paint45_linear_6446_36505)" stroke="url(#paint46_linear_6446_36505)" stroke-width="0.271585"/>
</g>
</g>
<g filter="url(#filter0_d_6446_36505)">
<rect x="216" y="143" width="343" height="104" rx="8" fill="white" shape-rendering="crispEdges"/>
<rect x="216.25" y="143.25" width="342.5" height="103.5" rx="7.75" stroke="#F4F4F5" stroke-width="0.5" shape-rendering="crispEdges"/>
<path d="M243.801 167.199C243.184 167.199 242.645 167.1 242.184 166.9C241.727 166.697 241.364 166.42 241.094 166.068C240.829 165.713 240.674 165.307 240.631 164.85L240.626 164.785H241.68L241.686 164.85C241.713 165.131 241.821 165.375 242.008 165.582C242.2 165.785 242.454 165.943 242.77 166.057C243.09 166.17 243.454 166.227 243.86 166.227C244.243 166.227 244.583 166.166 244.879 166.045C245.18 165.92 245.417 165.748 245.588 165.529C245.76 165.311 245.846 165.059 245.846 164.773V164.768C245.846 164.416 245.717 164.121 245.46 163.883C245.202 163.641 244.782 163.455 244.2 163.326L243.262 163.121C242.415 162.934 241.797 162.645 241.411 162.254C241.028 161.859 240.836 161.355 240.836 160.742V160.736C240.84 160.268 240.967 159.854 241.217 159.494C241.471 159.135 241.821 158.854 242.266 158.65C242.715 158.447 243.231 158.346 243.813 158.346C244.376 158.346 244.874 158.447 245.307 158.65C245.741 158.85 246.085 159.119 246.338 159.459C246.596 159.799 246.739 160.18 246.766 160.602L246.772 160.684H245.717L245.706 160.607C245.667 160.357 245.565 160.137 245.401 159.945C245.237 159.75 245.018 159.596 244.745 159.482C244.471 159.369 244.151 159.314 243.784 159.318C243.432 159.318 243.116 159.373 242.835 159.482C242.553 159.592 242.329 159.75 242.161 159.957C241.997 160.16 241.915 160.41 241.915 160.707V160.713C241.915 161.049 242.04 161.332 242.29 161.562C242.54 161.793 242.952 161.971 243.526 162.096L244.463 162.307C245.053 162.436 245.528 162.604 245.887 162.811C246.247 163.018 246.508 163.271 246.672 163.572C246.84 163.869 246.924 164.221 246.924 164.627V164.633C246.924 165.16 246.795 165.615 246.538 165.998C246.28 166.381 245.917 166.678 245.448 166.889C244.979 167.096 244.43 167.199 243.801 167.199ZM250.669 167.111C250.192 167.111 249.792 167.021 249.467 166.842C249.143 166.658 248.899 166.393 248.735 166.045C248.575 165.693 248.495 165.27 248.495 164.773V160.684H249.514V164.527C249.514 165.094 249.624 165.516 249.842 165.793C250.065 166.07 250.428 166.209 250.932 166.209C251.21 166.209 251.454 166.168 251.665 166.086C251.879 166.004 252.059 165.887 252.204 165.734C252.348 165.578 252.456 165.391 252.526 165.172C252.6 164.949 252.637 164.699 252.637 164.422V160.684H253.657V167H252.637V166.057H252.544C252.442 166.279 252.303 166.471 252.128 166.631C251.952 166.787 251.741 166.906 251.495 166.988C251.253 167.07 250.977 167.111 250.669 167.111ZM255.561 167V160.684H256.581V161.633H256.674C256.835 161.297 257.065 161.037 257.366 160.854C257.667 160.666 258.049 160.572 258.514 160.572C259.225 160.572 259.77 160.775 260.149 161.182C260.532 161.584 260.723 162.16 260.723 162.91V167H259.704V163.156C259.704 162.586 259.583 162.164 259.34 161.891C259.102 161.613 258.731 161.475 258.227 161.475C257.891 161.475 257.6 161.547 257.354 161.691C257.108 161.836 256.917 162.041 256.78 162.307C256.647 162.572 256.581 162.891 256.581 163.262V167H255.561Z" fill="#737373"/>
<path d="M285.142 167V158.545H286.367L289.261 165.6H289.355L292.25 158.545H293.474V167H292.49V160.543H291.974L293.158 158.779L289.754 167H288.863L285.465 158.779L286.642 160.543H286.127V167H285.142ZM298.097 167.111C297.5 167.111 296.982 166.98 296.545 166.719C296.111 166.453 295.775 166.076 295.537 165.588C295.302 165.1 295.185 164.52 295.185 163.848V163.836C295.185 163.16 295.302 162.578 295.537 162.09C295.775 161.602 296.111 161.227 296.545 160.965C296.982 160.703 297.5 160.572 298.097 160.572C298.699 160.572 299.216 160.703 299.65 160.965C300.084 161.227 300.418 161.602 300.652 162.09C300.89 162.578 301.009 163.16 301.009 163.836V163.848C301.009 164.52 300.89 165.1 300.652 165.588C300.418 166.076 300.084 166.453 299.65 166.719C299.216 166.98 298.699 167.111 298.097 167.111ZM298.097 166.209C298.496 166.209 298.834 166.115 299.111 165.928C299.388 165.74 299.599 165.471 299.744 165.119C299.892 164.768 299.966 164.344 299.966 163.848V163.836C299.966 163.336 299.892 162.91 299.744 162.559C299.599 162.207 299.388 161.939 299.111 161.756C298.834 161.568 298.496 161.475 298.097 161.475C297.699 161.475 297.361 161.568 297.084 161.756C296.806 161.939 296.593 162.207 296.445 162.559C296.3 162.91 296.228 163.336 296.228 163.836V163.848C296.228 164.344 296.3 164.768 296.445 165.119C296.593 165.471 296.806 165.74 297.084 165.928C297.361 166.115 297.699 166.209 298.097 166.209ZM302.591 167V160.684H303.611V161.633H303.705C303.865 161.297 304.095 161.037 304.396 160.854C304.697 160.666 305.08 160.572 305.545 160.572C306.256 160.572 306.8 160.775 307.179 161.182C307.562 161.584 307.754 162.16 307.754 162.91V167H306.734V163.156C306.734 162.586 306.613 162.164 306.371 161.891C306.133 161.613 305.761 161.475 305.258 161.475C304.922 161.475 304.631 161.547 304.384 161.691C304.138 161.836 303.947 162.041 303.81 162.307C303.677 162.572 303.611 162.891 303.611 163.262V167H302.591Z" fill="#737373"/>
<path d="M334.909 167V159.494H332.184V158.545H338.688V159.494H335.964V167H334.909ZM341.425 167.111C340.948 167.111 340.548 167.021 340.223 166.842C339.899 166.658 339.655 166.393 339.491 166.045C339.331 165.693 339.251 165.27 339.251 164.773V160.684H340.27V164.527C340.27 165.094 340.38 165.516 340.598 165.793C340.821 166.07 341.184 166.209 341.688 166.209C341.966 166.209 342.21 166.168 342.421 166.086C342.636 166.004 342.815 165.887 342.96 165.734C343.104 165.578 343.212 165.391 343.282 165.172C343.356 164.949 343.393 164.699 343.393 164.422V160.684H344.413V167H343.393V166.057H343.3C343.198 166.279 343.059 166.471 342.884 166.631C342.708 166.787 342.497 166.906 342.251 166.988C342.009 167.07 341.733 167.111 341.425 167.111ZM348.895 167.111C348.294 167.111 347.776 166.979 347.343 166.713C346.913 166.447 346.581 166.072 346.347 165.588C346.116 165.1 346.001 164.525 346.001 163.865V163.859C346.001 163.207 346.116 162.635 346.347 162.143C346.581 161.65 346.911 161.266 347.337 160.988C347.763 160.711 348.261 160.572 348.831 160.572C349.405 160.572 349.897 160.705 350.307 160.971C350.722 161.236 351.038 161.607 351.257 162.084C351.479 162.557 351.591 163.107 351.591 163.736V164.135H346.528V163.32H351.069L350.565 164.064V163.66C350.565 163.164 350.491 162.756 350.343 162.436C350.194 162.115 349.989 161.877 349.727 161.721C349.466 161.561 349.165 161.48 348.825 161.48C348.485 161.48 348.18 161.564 347.911 161.732C347.645 161.896 347.434 162.141 347.278 162.465C347.122 162.789 347.044 163.188 347.044 163.66V164.064C347.044 164.514 347.12 164.898 347.272 165.219C347.425 165.535 347.641 165.779 347.923 165.951C348.204 166.119 348.536 166.203 348.919 166.203C349.204 166.203 349.452 166.164 349.663 166.086C349.874 166.008 350.048 165.908 350.184 165.787C350.321 165.666 350.417 165.543 350.472 165.418L350.495 165.365H351.514L351.503 165.412C351.448 165.627 351.35 165.836 351.21 166.039C351.073 166.238 350.895 166.42 350.677 166.584C350.458 166.744 350.198 166.873 349.897 166.971C349.6 167.064 349.266 167.111 348.895 167.111Z" fill="#737373"/>
<path d="M377.703 167L375.4 158.545H376.502L378.184 165.418H378.254L380.146 158.545H381.213L383.105 165.418H383.176L384.857 158.545H385.959L383.656 167H382.66L380.715 160.326H380.645L378.699 167H377.703ZM389.428 167.111C388.826 167.111 388.309 166.979 387.875 166.713C387.445 166.447 387.113 166.072 386.879 165.588C386.648 165.1 386.533 164.525 386.533 163.865V163.859C386.533 163.207 386.648 162.635 386.879 162.143C387.113 161.65 387.443 161.266 387.869 160.988C388.295 160.711 388.793 160.572 389.363 160.572C389.938 160.572 390.43 160.705 390.84 160.971C391.254 161.236 391.57 161.607 391.789 162.084C392.012 162.557 392.123 163.107 392.123 163.736V164.135H387.061V163.32H391.602L391.098 164.064V163.66C391.098 163.164 391.023 162.756 390.875 162.436C390.727 162.115 390.521 161.877 390.26 161.721C389.998 161.561 389.697 161.48 389.357 161.48C389.018 161.48 388.713 161.564 388.443 161.732C388.178 161.896 387.967 162.141 387.811 162.465C387.654 162.789 387.576 163.188 387.576 163.66V164.064C387.576 164.514 387.652 164.898 387.805 165.219C387.957 165.535 388.174 165.779 388.455 165.951C388.736 166.119 389.068 166.203 389.451 166.203C389.736 166.203 389.984 166.164 390.195 166.086C390.406 166.008 390.58 165.908 390.717 165.787C390.854 165.666 390.949 165.543 391.004 165.418L391.027 165.365H392.047L392.035 165.412C391.98 165.627 391.883 165.836 391.742 166.039C391.605 166.238 391.428 166.42 391.209 166.584C390.99 166.744 390.73 166.873 390.43 166.971C390.133 167.064 389.799 167.111 389.428 167.111ZM396.037 167.111C395.506 167.111 395.041 166.977 394.643 166.707C394.244 166.438 393.936 166.059 393.717 165.57C393.498 165.078 393.389 164.504 393.389 163.848V163.836C393.389 163.176 393.498 162.602 393.717 162.113C393.936 161.625 394.242 161.246 394.637 160.977C395.035 160.707 395.502 160.572 396.037 160.572C396.326 160.572 396.598 160.619 396.852 160.713C397.109 160.803 397.338 160.93 397.537 161.094C397.736 161.258 397.893 161.453 398.006 161.68H398.1V158.176H399.119V167H398.1V165.992H398.006C397.877 166.227 397.715 166.428 397.52 166.596C397.324 166.76 397.102 166.887 396.852 166.977C396.602 167.066 396.33 167.111 396.037 167.111ZM396.271 166.209C396.654 166.209 396.984 166.113 397.262 165.922C397.539 165.73 397.752 165.459 397.9 165.107C398.049 164.752 398.123 164.332 398.123 163.848V163.836C398.123 163.348 398.049 162.928 397.9 162.576C397.752 162.225 397.539 161.953 397.262 161.762C396.984 161.57 396.654 161.475 396.271 161.475C395.889 161.475 395.559 161.57 395.281 161.762C395.008 161.949 394.797 162.219 394.648 162.57C394.504 162.922 394.432 163.344 394.432 163.836V163.848C394.432 164.336 394.504 164.758 394.648 165.113C394.797 165.465 395.008 165.736 395.281 165.928C395.559 166.115 395.889 166.209 396.271 166.209Z" fill="#737373"/>
<rect x="228.25" y="183.25" width="318.5" height="51.5" rx="5.75" fill="white"/>
<rect x="228.25" y="183.25" width="318.5" height="51.5" rx="5.75" stroke="#E8E8E8" stroke-width="0.5"/>
<rect x="240" y="195" width="28" height="28" rx="14" fill="#F3F4FC"/>
<path d="M258.458 207.49C258.425 207.417 258.372 207.356 258.305 207.313C258.239 207.269 258.161 207.246 258.081 207.246H254.842L256.225 203.563C256.248 203.5 256.256 203.432 256.248 203.365C256.24 203.298 256.215 203.235 256.177 203.179C256.139 203.124 256.088 203.079 256.028 203.048C255.969 203.016 255.903 203 255.835 203H252.477C252.396 203 252.317 203.023 252.25 203.067C252.182 203.111 252.128 203.174 252.096 203.248L249.369 209.404C249.341 209.467 249.329 209.537 249.334 209.606C249.34 209.675 249.362 209.741 249.4 209.799C249.438 209.858 249.489 209.905 249.55 209.939C249.611 209.972 249.679 209.989 249.748 209.99H252.56L251.235 214.977C251.212 215.068 251.22 215.164 251.257 215.25C251.295 215.335 251.361 215.406 251.444 215.45C251.527 215.494 251.622 215.508 251.714 215.491C251.806 215.474 251.89 215.427 251.952 215.356L258.394 207.935C258.446 207.875 258.48 207.801 258.491 207.722C258.503 207.643 258.491 207.562 258.458 207.49Z" fill="#C4CBF1"/>
<g filter="url(#filter1_d_6446_36505)">
<rect x="284.5" y="195" width="28" height="28" rx="14" fill="#526FDD" shape-rendering="crispEdges"/>
<path d="M303.458 207.49C303.425 207.417 303.372 207.356 303.305 207.313C303.239 207.269 303.161 207.246 303.081 207.246H299.842L301.225 203.563C301.248 203.5 301.256 203.432 301.248 203.365C301.24 203.298 301.215 203.235 301.177 203.179C301.139 203.124 301.088 203.079 301.028 203.048C300.969 203.016 300.903 203 300.835 203H297.477C297.396 203 297.317 203.023 297.25 203.067C297.182 203.111 297.128 203.174 297.096 203.248L294.369 209.404C294.341 209.467 294.329 209.537 294.334 209.606C294.34 209.675 294.362 209.741 294.4 209.799C294.438 209.858 294.489 209.905 294.55 209.939C294.611 209.972 294.679 209.989 294.748 209.99H297.56L296.235 214.977C296.212 215.068 296.22 215.164 296.257 215.25C296.295 215.335 296.361 215.406 296.444 215.45C296.527 215.494 296.622 215.508 296.714 215.491C296.806 215.474 296.89 215.427 296.952 215.356L303.394 207.935C303.446 207.875 303.48 207.801 303.491 207.722C303.503 207.643 303.491 207.562 303.458 207.49Z" fill="white"/>
</g>
<rect x="329" y="195" width="28" height="28" rx="14" fill="#F3F4FC"/>
<path d="M347.624 207.49C347.591 207.417 347.538 207.356 347.471 207.313C347.405 207.269 347.327 207.246 347.247 207.246H344.008L345.391 203.563C345.415 203.5 345.422 203.432 345.414 203.365C345.406 203.298 345.381 203.235 345.343 203.179C345.305 203.124 345.254 203.079 345.194 203.048C345.135 203.016 345.069 203 345.001 203H341.643C341.562 203 341.483 203.023 341.416 203.067C341.348 203.111 341.295 203.174 341.262 203.248L338.535 209.404C338.507 209.467 338.495 209.537 338.5 209.606C338.506 209.675 338.528 209.741 338.566 209.799C338.604 209.858 338.655 209.905 338.716 209.939C338.777 209.972 338.845 209.989 338.914 209.99H341.726L340.401 214.977C340.378 215.068 340.386 215.164 340.424 215.25C340.461 215.335 340.527 215.406 340.61 215.45C340.693 215.494 340.788 215.508 340.88 215.491C340.972 215.474 341.056 215.427 341.118 215.356L347.56 207.935C347.612 207.875 347.646 207.801 347.657 207.722C347.669 207.643 347.657 207.562 347.624 207.49Z" fill="#C4CBF1"/>
<rect x="373.5" y="195" width="28" height="28" rx="14" fill="#F3F4FC"/>
<path d="M392.292 207.49C392.259 207.417 392.206 207.356 392.139 207.313C392.073 207.269 391.995 207.246 391.915 207.246H388.676L390.059 203.563C390.082 203.5 390.09 203.432 390.082 203.365C390.074 203.298 390.049 203.235 390.011 203.179C389.973 203.124 389.922 203.079 389.862 203.048C389.803 203.016 389.737 203 389.669 203H386.311C386.23 203 386.151 203.023 386.084 203.067C386.016 203.111 385.962 203.174 385.93 203.248L383.203 209.404C383.175 209.467 383.163 209.537 383.168 209.606C383.174 209.675 383.196 209.741 383.234 209.799C383.272 209.858 383.323 209.905 383.384 209.939C383.445 209.972 383.513 209.989 383.582 209.99H386.394L385.069 214.977C385.046 215.068 385.054 215.164 385.091 215.25C385.129 215.335 385.195 215.406 385.278 215.45C385.361 215.494 385.456 215.508 385.548 215.491C385.64 215.474 385.724 215.427 385.786 215.356L392.228 207.935C392.28 207.875 392.314 207.801 392.325 207.722C392.337 207.643 392.325 207.562 392.292 207.49Z" fill="#C4CBF1"/>
</g>
<g filter="url(#filter2_d_6446_36505)">
<rect x="-17" y="117" width="124" height="84" rx="6" fill="#E7B744" shape-rendering="crispEdges"/>
<rect x="-16" y="118" width="122" height="82" rx="5" stroke="white" stroke-width="2" shape-rendering="crispEdges"/>
<path d="M21.2078 139V137.73H23.9309C24.5361 137.73 24.9952 137.608 25.3084 137.362C25.6215 137.113 25.7781 136.755 25.7781 136.29V136.277C25.7781 135.968 25.7061 135.708 25.5623 135.496C25.4184 135.285 25.2026 135.126 24.9148 135.02C24.6313 134.914 24.28 134.861 23.8611 134.861H21.2078V133.7H23.6072C24.1869 133.7 24.627 133.59 24.9275 133.37C25.2322 133.15 25.3845 132.832 25.3845 132.417V132.405C25.3845 131.999 25.247 131.681 24.9719 131.453C24.6969 131.224 24.3118 131.11 23.8167 131.11H21.2078V129.84H24.2102C24.7942 129.84 25.2935 129.933 25.7083 130.12C26.123 130.302 26.4425 130.564 26.6668 130.907C26.891 131.245 27.0032 131.649 27.0032 132.119V132.132C27.0032 132.453 26.9291 132.754 26.781 133.033C26.6371 133.312 26.4425 133.545 26.197 133.731C25.9558 133.918 25.6808 134.036 25.3718 134.087V134.201C25.7823 134.239 26.142 134.358 26.4509 134.557C26.7641 134.751 27.0074 135.007 27.1809 135.325C27.3587 135.642 27.4475 135.998 27.4475 136.391V136.404C27.4475 136.937 27.3206 137.398 27.0667 137.788C26.817 138.177 26.4573 138.477 25.9876 138.689C25.5178 138.896 24.9571 139 24.3054 139H21.2078ZM20.3889 139V129.84H22.0266V139H20.3889ZM30.8841 139.114C30.4482 139.114 30.0568 139.03 29.7098 138.86C29.367 138.691 29.0962 138.452 28.8973 138.143C28.7026 137.83 28.6053 137.462 28.6053 137.039V137.026C28.6053 136.615 28.7069 136.262 28.91 135.966C29.1131 135.665 29.4115 135.431 29.805 135.261C30.1986 135.092 30.6768 134.993 31.2396 134.963L33.804 134.804V135.845L31.4618 135.998C31.0174 136.023 30.6895 136.116 30.4779 136.277C30.2663 136.438 30.1605 136.662 30.1605 136.95V136.962C30.1605 137.259 30.2726 137.489 30.4969 137.654C30.7254 137.819 31.0153 137.902 31.3665 137.902C31.6839 137.902 31.9675 137.838 32.2171 137.711C32.4668 137.584 32.6636 137.413 32.8075 137.197C32.9513 136.977 33.0233 136.73 33.0233 136.455V134.258C33.0233 133.911 32.9133 133.647 32.6932 133.465C32.4732 133.279 32.1473 133.186 31.7157 133.186C31.356 133.186 31.0619 133.249 30.8333 133.376C30.6048 133.499 30.4504 133.674 30.37 133.903L30.3636 133.928H28.8719L28.8783 133.871C28.929 133.482 29.0814 133.141 29.3353 132.849C29.5892 132.557 29.9256 132.331 30.3446 132.17C30.7635 132.009 31.2459 131.929 31.7918 131.929C32.3927 131.929 32.9006 132.022 33.3153 132.208C33.73 132.39 34.0453 132.657 34.2611 133.008C34.4769 133.355 34.5848 133.772 34.5848 134.258V139H33.0233V138.048H32.9154C32.7884 138.268 32.6234 138.458 32.4203 138.619C32.2214 138.78 31.9928 138.903 31.7347 138.987C31.4766 139.072 31.193 139.114 30.8841 139.114ZM36.4028 139V132.062H37.9833V133.128H38.0912C38.2097 132.756 38.4213 132.466 38.726 132.259C39.0349 132.051 39.4179 131.948 39.8749 131.948C39.9934 131.948 40.1098 131.956 40.224 131.973C40.3425 131.986 40.4399 132.003 40.516 132.024V133.439C40.3891 133.41 40.26 133.389 40.1288 133.376C40.0019 133.359 39.8686 133.351 39.7289 133.351C39.3777 133.351 39.0709 133.416 38.8085 133.547C38.5461 133.679 38.343 133.867 38.1991 134.112C38.0553 134.354 37.9833 134.639 37.9833 134.969V139H36.4028ZM43.5337 139.114C43.0978 139.114 42.7064 139.03 42.3594 138.86C42.0166 138.691 41.7458 138.452 41.5469 138.143C41.3522 137.83 41.2549 137.462 41.2549 137.039V137.026C41.2549 136.615 41.3564 136.262 41.5596 135.966C41.7627 135.665 42.061 135.431 42.4546 135.261C42.8481 135.092 43.3263 134.993 43.8892 134.963L46.4536 134.804V135.845L44.1113 135.998C43.667 136.023 43.339 136.116 43.1274 136.277C42.9159 136.438 42.8101 136.662 42.8101 136.95V136.962C42.8101 137.259 42.9222 137.489 43.1465 137.654C43.375 137.819 43.6649 137.902 44.0161 137.902C44.3335 137.902 44.617 137.838 44.8667 137.711C45.1164 137.584 45.3132 137.413 45.457 137.197C45.6009 136.977 45.6729 136.73 45.6729 136.455V134.258C45.6729 133.911 45.5628 133.647 45.3428 133.465C45.1227 133.279 44.7969 133.186 44.3652 133.186C44.0055 133.186 43.7114 133.249 43.4829 133.376C43.2544 133.499 43.0999 133.674 43.0195 133.903L43.0132 133.928H41.5215L41.5278 133.871C41.5786 133.482 41.731 133.141 41.9849 132.849C42.2388 132.557 42.5752 132.331 42.9941 132.17C43.4131 132.009 43.8955 131.929 44.4414 131.929C45.0423 131.929 45.5501 132.022 45.9648 132.208C46.3796 132.39 46.6948 132.657 46.9106 133.008C47.1265 133.355 47.2344 133.772 47.2344 134.258V139H45.6729V138.048H45.5649C45.438 138.268 45.2729 138.458 45.0698 138.619C44.8709 138.78 44.6424 138.903 44.3843 138.987C44.1261 139.072 43.8426 139.114 43.5337 139.114ZM49.1158 139V129.377H50.6964V139H49.1158ZM53.4766 139L51.1407 135.852L52.315 134.887L55.3746 139H53.4766ZM50.5631 136.702L50.5059 134.912H50.8043L53.3624 132.062H55.1905L52.1754 135.229L51.4517 135.794L50.5631 136.702ZM58.1764 139.114C57.7405 139.114 57.3491 139.03 57.0021 138.86C56.6593 138.691 56.3885 138.452 56.1896 138.143C55.9949 137.83 55.8976 137.462 55.8976 137.039V137.026C55.8976 136.615 55.9992 136.262 56.2023 135.966C56.4054 135.665 56.7038 135.431 57.0973 135.261C57.4909 135.092 57.9691 134.993 58.5319 134.963L61.0963 134.804V135.845L58.7541 135.998C58.3097 136.023 57.9818 136.116 57.7702 136.277C57.5586 136.438 57.4528 136.662 57.4528 136.95V136.962C57.4528 137.259 57.5649 137.489 57.7892 137.654C58.0177 137.819 58.3076 137.902 58.6588 137.902C58.9762 137.902 59.2598 137.838 59.5094 137.711C59.7591 137.584 59.9559 137.413 60.0998 137.197C60.2436 136.977 60.3156 136.73 60.3156 136.455V134.258C60.3156 133.911 60.2056 133.647 59.9855 133.465C59.7655 133.279 59.4396 133.186 59.008 133.186C58.6483 133.186 58.3542 133.249 58.1256 133.376C57.8971 133.499 57.7427 133.674 57.6623 133.903L57.6559 133.928H56.1642L56.1706 133.871C56.2213 133.482 56.3737 133.141 56.6276 132.849C56.8815 132.557 57.2179 132.331 57.6369 132.17C58.0558 132.009 58.5382 131.929 59.0841 131.929C59.685 131.929 60.1929 132.022 60.6076 132.208C61.0223 132.39 61.3376 132.657 61.5534 133.008C61.7692 133.355 61.8771 133.772 61.8771 134.258V139H60.3156V138.048H60.2077C60.0807 138.268 59.9157 138.458 59.7126 138.619C59.5137 138.78 59.2851 138.903 59.027 138.987C58.7689 139.072 58.4853 139.114 58.1764 139.114ZM63.7585 139V129.377H65.3391V133.128H65.447C65.6121 132.752 65.8617 132.458 66.196 132.246C66.5303 132.035 66.9472 131.929 67.4465 131.929C67.9628 131.929 68.3987 132.03 68.7541 132.233C69.1096 132.432 69.3783 132.724 69.5603 133.109C69.7465 133.494 69.8396 133.962 69.8396 134.512V139H68.259V134.88C68.259 134.339 68.1448 133.932 67.9163 133.662C67.692 133.391 67.3407 133.255 66.8625 133.255C66.5494 133.255 66.2786 133.325 66.05 133.465C65.8215 133.604 65.6459 133.801 65.5232 134.055C65.4005 134.309 65.3391 134.61 65.3391 134.957V139H63.7585Z" fill="white"/>
<path d="M31.6316 162V150.672H31.4852L27.9988 153.084V150.438L31.6414 147.908H34.5809V162H31.6316ZM43.2715 162.332C42.0996 162.332 41.0938 162.033 40.2539 161.434C39.4141 160.835 38.7663 159.985 38.3105 158.885C37.8613 157.785 37.6367 156.476 37.6367 154.959V154.939C37.6367 153.423 37.8613 152.117 38.3105 151.023C38.7663 149.923 39.4141 149.074 40.2539 148.475C41.0938 147.876 42.0996 147.576 43.2715 147.576C44.4434 147.576 45.4492 147.876 46.2891 148.475C47.1289 149.074 47.7734 149.923 48.2227 151.023C48.6784 152.117 48.9063 153.423 48.9063 154.939V154.959C48.9063 156.476 48.6784 157.785 48.2227 158.885C47.7734 159.985 47.1289 160.835 46.2891 161.434C45.4492 162.033 44.4434 162.332 43.2715 162.332ZM43.2715 159.998C43.8379 159.998 44.3164 159.799 44.707 159.402C45.1042 158.999 45.4069 158.423 45.6152 157.674C45.8236 156.919 45.9277 156.014 45.9277 154.959V154.939C45.9277 153.885 45.8236 152.983 45.6152 152.234C45.4069 151.486 45.1042 150.913 44.707 150.516C44.3164 150.118 43.8379 149.92 43.2715 149.92C42.7116 149.92 42.2331 150.118 41.8359 150.516C41.4453 150.913 41.1458 151.486 40.9375 152.234C40.7292 152.983 40.625 153.885 40.625 154.939V154.959C40.625 156.014 40.7292 156.919 40.9375 157.674C41.1458 158.423 41.4453 158.999 41.8359 159.402C42.2331 159.799 42.7116 159.998 43.2715 159.998ZM56.3762 162.332C55.2043 162.332 54.1984 162.033 53.3586 161.434C52.5188 160.835 51.871 159.985 51.4152 158.885C50.966 157.785 50.7414 156.476 50.7414 154.959V154.939C50.7414 153.423 50.966 152.117 51.4152 151.023C51.871 149.923 52.5188 149.074 53.3586 148.475C54.1984 147.876 55.2043 147.576 56.3762 147.576C57.548 147.576 58.5539 147.876 59.3938 148.475C60.2336 149.074 60.8781 149.923 61.3273 151.023C61.7831 152.117 62.0109 153.423 62.0109 154.939V154.959C62.0109 156.476 61.7831 157.785 61.3273 158.885C60.8781 159.985 60.2336 160.835 59.3938 161.434C58.5539 162.033 57.548 162.332 56.3762 162.332ZM56.3762 159.998C56.9426 159.998 57.4211 159.799 57.8117 159.402C58.2089 158.999 58.5116 158.423 58.7199 157.674C58.9283 156.919 59.0324 156.014 59.0324 154.959V154.939C59.0324 153.885 58.9283 152.983 58.7199 152.234C58.5116 151.486 58.2089 150.913 57.8117 150.516C57.4211 150.118 56.9426 149.92 56.3762 149.92C55.8163 149.92 55.3378 150.118 54.9406 150.516C54.55 150.913 54.2505 151.486 54.0422 152.234C53.8339 152.983 53.7297 153.885 53.7297 154.939V154.959C53.7297 156.014 53.8339 156.919 54.0422 157.674C54.2505 158.423 54.55 158.999 54.9406 159.402C55.3378 159.799 55.8163 159.998 56.3762 159.998Z" fill="#422A19"/>
<path d="M45 191.5C50.799 191.5 55.5 186.799 55.5 181C55.5 175.201 50.799 170.5 45 170.5C39.201 170.5 34.5 175.201 34.5 181C34.5 186.799 39.201 191.5 45 191.5Z" fill="#FFD731"/>
<path d="M55.5 181C55.5 186.797 50.7975 191.5 45 191.5C42.3225 191.5 39.8775 190.495 38.0175 188.837C39.3675 189.535 40.905 189.925 42.525 189.925C47.9925 189.925 52.425 185.492 52.425 180.025C52.425 175.502 49.3875 171.685 45.24 170.507C50.925 170.627 55.5 175.285 55.5 181Z" fill="#FFC933"/>
<path d="M38.5005 174.938C38.4203 174.938 38.3393 174.907 38.277 174.846C38.1518 174.722 38.1503 174.521 38.2733 174.395C39.153 173.5 40.182 172.798 41.3318 172.311C41.493 172.242 41.6813 172.318 41.7495 172.48C41.8185 172.642 41.7428 172.829 41.5808 172.898C40.5083 173.352 39.549 174.006 38.7285 174.842C38.6663 174.905 38.583 174.938 38.5005 174.938ZM37.584 176.028C37.5195 176.028 37.455 176.009 37.398 175.968C37.2555 175.865 37.2225 175.667 37.3253 175.523L37.3845 175.442C37.4895 175.301 37.6898 175.271 37.8308 175.376C37.9718 175.481 38.0018 175.68 37.8968 175.822L37.8435 175.895C37.7813 175.982 37.683 176.028 37.584 176.028Z" fill="#FFE576"/>
<path d="M45.0004 188.36C49.0651 188.36 52.3601 185.065 52.3601 181C52.3601 176.936 49.0651 173.641 45.0004 173.641C40.9357 173.641 37.6406 176.936 37.6406 181C37.6406 185.065 40.9357 188.36 45.0004 188.36Z" fill="#F8972C"/>
<path d="M52.3573 181C52.3573 185.065 49.0648 188.357 44.9998 188.357C43.0798 188.357 41.3398 187.622 40.0273 186.43C40.8223 186.707 41.6773 186.857 42.5623 186.857C46.7548 186.857 50.1523 183.46 50.1523 179.267C50.1523 177.467 49.5298 175.81 48.4798 174.512C50.7898 175.757 52.3573 178.195 52.3573 181Z" fill="#ED8924"/>
<path d="M40.6572 177.224C40.5792 177.224 40.5004 177.195 40.4382 177.137C40.3099 177.016 40.3039 176.814 40.4247 176.686C40.8447 176.241 41.3247 175.86 41.8527 175.553C42.0057 175.464 42.1999 175.517 42.2884 175.669C42.3769 175.821 42.3252 176.016 42.1729 176.105C41.6982 176.38 41.2662 176.723 40.8889 177.122C40.8267 177.19 40.7419 177.224 40.6572 177.224Z" fill="#FFB476"/>
<path d="M45.3413 177.023L46.4183 179.206L48.8206 179.554C49.1333 179.6 49.2586 179.985 49.0321 180.205L47.2936 181.9L47.7053 184.298C47.7586 184.607 47.4338 184.843 47.1563 184.697L45.0023 183.565L42.8483 184.697C42.5708 184.843 42.2461 184.607 42.2993 184.298L42.7111 181.9L40.9681 180.201C40.7438 179.982 40.8676 179.601 41.1781 179.555L43.5863 179.205L44.6633 177.022C44.8013 176.742 45.2026 176.742 45.3413 177.023Z" fill="#FFD731"/>
</g>
<defs>
<filter id="filter0_d_6446_36505" x="200" y="131" width="375" height="136" filterUnits="userSpaceOnUse" color-interpolation-filters="sRGB">
<feFlood flood-opacity="0" result="BackgroundImageFix"/>
<feColorMatrix in="SourceAlpha" type="matrix" values="0 0 0 0 0 0 0 0 0 0 0 0 0 0 0 0 0 0 127 0" result="hardAlpha"/>
<feOffset dy="4"/>
<feGaussianBlur stdDeviation="8"/>
<feComposite in2="hardAlpha" operator="out"/>
<feColorMatrix type="matrix" values="0 0 0 0 0 0 0 0 0 0.0941176 0 0 0 0 0.321569 0 0 0 0.08 0"/>
<feBlend mode="normal" in2="BackgroundImageFix" result="effect1_dropShadow_6446_36505"/>
<feBlend mode="normal" in="SourceGraphic" in2="effect1_dropShadow_6446_36505" result="shape"/>
</filter>
<filter id="filter1_d_6446_36505" x="280.5" y="195" width="36" height="36" filterUnits="userSpaceOnUse" color-interpolation-filters="sRGB">
<feFlood flood-opacity="0" result="BackgroundImageFix"/>
<feColorMatrix in="SourceAlpha" type="matrix" values="0 0 0 0 0 0 0 0 0 0 0 0 0 0 0 0 0 0 127 0" result="hardAlpha"/>
<feOffset dy="4"/>
<feGaussianBlur stdDeviation="2"/>
<feComposite in2="hardAlpha" operator="out"/>
<feColorMatrix type="matrix" values="0 0 0 0 0.847059 0 0 0 0 0.533333 0 0 0 0 0.321569 0 0 0 0.16 0"/>
<feBlend mode="normal" in2="BackgroundImageFix" result="effect1_dropShadow_6446_36505"/>
<feBlend mode="normal" in="SourceGraphic" in2="effect1_dropShadow_6446_36505" result="shape"/>
</filter>
<filter id="filter2_d_6446_36505" x="-25" y="113" width="140" height="100" filterUnits="userSpaceOnUse" color-interpolation-filters="sRGB">
<feFlood flood-opacity="0" result="BackgroundImageFix"/>
<feColorMatrix in="SourceAlpha" type="matrix" values="0 0 0 0 0 0 0 0 0 0 0 0 0 0 0 0 0 0 127 0" result="hardAlpha"/>
<feOffset dy="4"/>
<feGaussianBlur stdDeviation="4"/>
<feComposite in2="hardAlpha" operator="out"/>
<feColorMatrix type="matrix" values="0 0 0 0 0.258824 0 0 0 0 0.164706 0 0 0 0 0.0980392 0 0 0 0.16 0"/>
<feBlend mode="normal" in2="BackgroundImageFix" result="effect1_dropShadow_6446_36505"/>
<feBlend mode="normal" in="SourceGraphic" in2="effect1_dropShadow_6446_36505" result="shape"/>
</filter>
<linearGradient id="paint0_linear_6446_36505" x1="195.5" y1="22" x2="195.5" y2="205" gradientUnits="userSpaceOnUse">
<stop stop-color="#9DA9E8"/>
<stop offset="1" stop-color="#FDFBE8"/>
</linearGradient>
<linearGradient id="paint1_linear_6446_36505" x1="149.852" y1="120.601" x2="149.858" y2="120.642" gradientUnits="userSpaceOnUse">
<stop stop-color="white"/>
<stop offset="1" stop-color="white"/>
</linearGradient>
<linearGradient id="paint2_linear_6446_36505" x1="149.852" y1="120.601" x2="149.858" y2="120.642" gradientUnits="userSpaceOnUse">
<stop stop-color="white"/>
<stop offset="1" stop-color="white"/>
</linearGradient>
<linearGradient id="paint3_linear_6446_36505" x1="256.487" y1="120.601" x2="256.493" y2="120.642" gradientUnits="userSpaceOnUse">
<stop stop-color="white"/>
<stop offset="1" stop-color="white"/>
</linearGradient>
<linearGradient id="paint4_linear_6446_36505" x1="256.487" y1="120.601" x2="256.493" y2="120.642" gradientUnits="userSpaceOnUse">
<stop stop-color="white"/>
<stop offset="1" stop-color="white"/>
</linearGradient>
<linearGradient id="paint5_linear_6446_36505" x1="84.3452" y1="83.3504" x2="84.6548" y2="101.234" gradientUnits="userSpaceOnUse">
<stop stop-color="white"/>
<stop offset="1" stop-color="white"/>
</linearGradient>
<linearGradient id="paint6_linear_6446_36505" x1="84.3452" y1="83.3504" x2="84.6548" y2="101.234" gradientUnits="userSpaceOnUse">
<stop stop-color="white"/>
<stop offset="1" stop-color="white"/>
</linearGradient>
<linearGradient id="paint7_linear_6446_36505" x1="299.179" y1="83.3502" x2="299.489" y2="101.234" gradientUnits="userSpaceOnUse">
<stop stop-color="white"/>
<stop offset="1" stop-color="white"/>
</linearGradient>
<linearGradient id="paint8_linear_6446_36505" x1="299.179" y1="83.3502" x2="299.489" y2="101.234" gradientUnits="userSpaceOnUse">
<stop stop-color="white"/>
<stop offset="1" stop-color="white"/>
</linearGradient>
<linearGradient id="paint9_linear_6446_36505" x1="299.179" y1="107.606" x2="299.248" y2="116.037" gradientUnits="userSpaceOnUse">
<stop stop-color="white"/>
<stop offset="1" stop-color="white"/>
</linearGradient>
<linearGradient id="paint10_linear_6446_36505" x1="299.179" y1="107.606" x2="299.248" y2="116.037" gradientUnits="userSpaceOnUse">
<stop stop-color="white"/>
<stop offset="1" stop-color="white"/>
</linearGradient>
<linearGradient id="paint11_linear_6446_36505" x1="84.3451" y1="107.606" x2="84.4139" y2="116.037" gradientUnits="userSpaceOnUse">
<stop stop-color="white"/>
<stop offset="1" stop-color="white"/>
</linearGradient>
<linearGradient id="paint12_linear_6446_36505" x1="84.3451" y1="107.606" x2="84.4139" y2="116.037" gradientUnits="userSpaceOnUse">
<stop stop-color="white"/>
<stop offset="1" stop-color="white"/>
</linearGradient>
<linearGradient id="paint13_linear_6446_36505" x1="139.269" y1="99.1638" x2="139.568" y2="116.739" gradientUnits="userSpaceOnUse">
<stop stop-color="white"/>
<stop offset="1" stop-color="white"/>
</linearGradient>
<linearGradient id="paint14_linear_6446_36505" x1="139.269" y1="99.1638" x2="139.568" y2="116.739" gradientUnits="userSpaceOnUse">
<stop stop-color="white"/>
<stop offset="1" stop-color="white"/>
</linearGradient>
<linearGradient id="paint15_linear_6446_36505" x1="245.905" y1="99.1638" x2="246.204" y2="116.739" gradientUnits="userSpaceOnUse">
<stop stop-color="white"/>
<stop offset="1" stop-color="white"/>
</linearGradient>
<linearGradient id="paint16_linear_6446_36505" x1="245.905" y1="99.1638" x2="246.204" y2="116.739" gradientUnits="userSpaceOnUse">
<stop stop-color="white"/>
<stop offset="1" stop-color="white"/>
</linearGradient>
<linearGradient id="paint17_linear_6446_36505" x1="180.165" y1="95.7147" x2="180.965" y2="212.257" gradientUnits="userSpaceOnUse">
<stop stop-color="white"/>
<stop offset="1" stop-color="white"/>
</linearGradient>
<linearGradient id="paint18_linear_6446_36505" x1="180.165" y1="95.7147" x2="180.965" y2="212.257" gradientUnits="userSpaceOnUse">
<stop stop-color="white"/>
<stop offset="1" stop-color="white"/>
</linearGradient>
<linearGradient id="paint19_linear_6446_36505" x1="256.487" y1="120.601" x2="256.493" y2="120.642" gradientUnits="userSpaceOnUse">
<stop stop-color="white"/>
<stop offset="1" stop-color="white"/>
</linearGradient>
<linearGradient id="paint20_linear_6446_36505" x1="256.487" y1="120.601" x2="256.493" y2="120.642" gradientUnits="userSpaceOnUse">
<stop stop-color="white"/>
<stop offset="1" stop-color="white"/>
</linearGradient>
<linearGradient id="paint21_linear_6446_36505" x1="149.852" y1="120.601" x2="149.858" y2="120.642" gradientUnits="userSpaceOnUse">
<stop stop-color="white"/>
<stop offset="1" stop-color="white"/>
</linearGradient>
<linearGradient id="paint22_linear_6446_36505" x1="149.852" y1="120.601" x2="149.858" y2="120.642" gradientUnits="userSpaceOnUse">
<stop stop-color="white"/>
<stop offset="1" stop-color="white"/>
</linearGradient>
<linearGradient id="paint23_linear_6446_36505" x1="190.321" y1="51.1659" x2="190.793" y2="80.7847" gradientUnits="userSpaceOnUse">
<stop stop-color="white"/>
<stop offset="1" stop-color="white"/>
</linearGradient>
<linearGradient id="paint24_linear_6446_36505" x1="190.321" y1="51.1659" x2="190.793" y2="80.7847" gradientUnits="userSpaceOnUse">
<stop stop-color="white"/>
<stop offset="1" stop-color="white"/>
</linearGradient>
<linearGradient id="paint25_linear_6446_36505" x1="41.0439" y1="120.24" x2="41.0574" y2="121.089" gradientUnits="userSpaceOnUse">
<stop stop-color="white"/>
<stop offset="1" stop-color="white"/>
</linearGradient>
<linearGradient id="paint26_linear_6446_36505" x1="41.0439" y1="50.0079" x2="69.3668" y2="76.4637" gradientUnits="userSpaceOnUse">
<stop stop-color="white"/>
<stop offset="1" stop-color="white"/>
</linearGradient>
<linearGradient id="paint27_linear_6446_36505" x1="41.0438" y1="42.9986" x2="41.0574" y2="43.8472" gradientUnits="userSpaceOnUse">
<stop stop-color="white"/>
<stop offset="1" stop-color="white"/>
</linearGradient>
<linearGradient id="paint28_linear_6446_36505" x1="39.8993" y1="118.973" x2="40.0164" y2="126.558" gradientUnits="userSpaceOnUse">
<stop stop-color="white"/>
<stop offset="1" stop-color="white"/>
</linearGradient>
<linearGradient id="paint29_linear_6446_36505" x1="39.8993" y1="118.973" x2="40.0164" y2="126.558" gradientUnits="userSpaceOnUse">
<stop stop-color="white"/>
<stop offset="1" stop-color="white"/>
</linearGradient>
<linearGradient id="paint30_linear_6446_36505" x1="126.483" y1="63.1766" x2="126.496" y2="64.0251" gradientUnits="userSpaceOnUse">
<stop stop-color="white"/>
<stop offset="1" stop-color="white"/>
</linearGradient>
<linearGradient id="paint31_linear_6446_36505" x1="126.483" y1="11.194" x2="146.645" y2="36.9387" gradientUnits="userSpaceOnUse">
<stop stop-color="white"/>
<stop offset="1" stop-color="white"/>
</linearGradient>
<linearGradient id="paint32_linear_6446_36505" x1="126.3" y1="65.2906" x2="126.425" y2="73.5873" gradientUnits="userSpaceOnUse">
<stop stop-color="white"/>
<stop offset="1" stop-color="white"/>
</linearGradient>
<linearGradient id="paint33_linear_6446_36505" x1="126.3" y1="65.2906" x2="126.425" y2="73.5873" gradientUnits="userSpaceOnUse">
<stop stop-color="white"/>
<stop offset="1" stop-color="white"/>
</linearGradient>
<linearGradient id="paint34_linear_6446_36505" x1="249.077" y1="68.1493" x2="249.09" y2="68.998" gradientUnits="userSpaceOnUse">
<stop stop-color="white"/>
<stop offset="1" stop-color="white"/>
</linearGradient>
<linearGradient id="paint35_linear_6446_36505" x1="249.077" y1="16.167" x2="269.24" y2="41.9117" gradientUnits="userSpaceOnUse">
<stop stop-color="white"/>
<stop offset="1" stop-color="white"/>
</linearGradient>
<linearGradient id="paint36_linear_6446_36505" x1="247.759" y1="71.2795" x2="247.871" y2="78.5913" gradientUnits="userSpaceOnUse">
<stop stop-color="white"/>
<stop offset="1" stop-color="white"/>
</linearGradient>
<linearGradient id="paint37_linear_6446_36505" x1="247.759" y1="71.2795" x2="247.871" y2="78.5913" gradientUnits="userSpaceOnUse">
<stop stop-color="white"/>
<stop offset="1" stop-color="white"/>
</linearGradient>
<linearGradient id="paint38_linear_6446_36505" x1="327.222" y1="92.8827" x2="327.235" y2="93.7312" gradientUnits="userSpaceOnUse">
<stop stop-color="white"/>
<stop offset="1" stop-color="white"/>
</linearGradient>
<linearGradient id="paint39_linear_6446_36505" x1="327.222" y1="22.6507" x2="355.544" y2="49.1065" gradientUnits="userSpaceOnUse">
<stop stop-color="white"/>
<stop offset="1" stop-color="white"/>
</linearGradient>
<linearGradient id="paint40_linear_6446_36505" x1="326.357" y1="95.7754" x2="326.471" y2="103.342" gradientUnits="userSpaceOnUse">
<stop stop-color="white"/>
<stop offset="1" stop-color="white"/>
</linearGradient>
<linearGradient id="paint41_linear_6446_36505" x1="326.357" y1="95.7754" x2="326.471" y2="103.342" gradientUnits="userSpaceOnUse">
<stop stop-color="white"/>
<stop offset="1" stop-color="white"/>
</linearGradient>
<linearGradient id="paint42_linear_6446_36505" x1="347.873" y1="138.658" x2="347.887" y2="139.507" gradientUnits="userSpaceOnUse">
<stop stop-color="white"/>
<stop offset="1" stop-color="white"/>
</linearGradient>
<linearGradient id="paint43_linear_6446_36505" x1="347.873" y1="68.4261" x2="376.196" y2="94.8819" gradientUnits="userSpaceOnUse">
<stop stop-color="white"/>
<stop offset="1" stop-color="white"/>
</linearGradient>
<linearGradient id="paint44_linear_6446_36505" x1="347.874" y1="61.4171" x2="347.887" y2="62.2656" gradientUnits="userSpaceOnUse">
<stop stop-color="white"/>
<stop offset="1" stop-color="white"/>
</linearGradient>
<linearGradient id="paint45_linear_6446_36505" x1="347.959" y1="141.273" x2="348.071" y2="148.794" gradientUnits="userSpaceOnUse">
<stop stop-color="white"/>
<stop offset="1" stop-color="white"/>
</linearGradient>
<linearGradient id="paint46_linear_6446_36505" x1="347.959" y1="141.273" x2="348.071" y2="148.794" gradientUnits="userSpaceOnUse">
<stop stop-color="white"/>
<stop offset="1" stop-color="white"/>
</linearGradient>
<clipPath id="clip0_6446_36505">
<rect x="33" y="22" width="325" height="183" rx="8" fill="white"/>
</clipPath>
</defs>
</svg>
